<svg viewBox="0 0 177 35" fill="none" xmlns="http://www.w3.org/2000/svg">
<path fill-rule="evenodd" clip-rule="evenodd" d="M21.8039 9.77986H22.1859C24.5739 9.77986 26.9609 8.25086 26.9609 6.24586C26.9609 5.19486 26.4829 4.43086 25.9099 3.57186C25.5279 3.66686 25.2419 3.66686 24.9549 3.66686C23.9039 3.66686 23.3309 3.09386 23.2359 2.52086C23.2359 2.04286 23.7129 1.56586 24.2859 1.56586C25.3369 1.56586 27.1519 2.52086 29.0619 2.52086C28.8709 2.71186 28.5839 2.80786 28.2019 2.99886C29.2771 3.98835 30.0127 5.29191 30.3039 6.72386L33.1699 11.2129C33.6479 11.9769 34.6029 13.5049 36.1309 14.6509C34.3159 14.6509 33.0739 14.7459 31.5459 12.2629L30.1129 9.87486C29.9219 10.2569 29.8259 10.5439 29.6349 10.8299L32.5959 15.5109C33.0739 16.2749 34.0289 17.7079 35.6529 18.8539C33.7419 18.8539 32.5009 18.9499 30.9719 16.4659L28.4889 12.4539L27.9159 13.0269L31.4499 18.6619C31.9279 19.5209 32.8829 20.9539 34.4109 22.0999C32.5959 22.0999 31.3539 22.1949 29.8259 19.7119L26.3869 14.1719L25.6229 14.6499L29.8259 21.3359C30.3039 22.0999 31.3539 23.6279 32.8819 24.7739C31.0679 24.7739 29.8259 24.7739 28.2979 22.3859L23.9039 15.4129L23.1399 15.6999L28.0109 23.5319C28.4889 24.2959 29.5389 25.8239 31.0679 26.9709C29.2529 26.9709 28.0109 26.9709 26.3869 24.4879L21.2299 16.1779H21.0399C20.9449 16.6559 20.8489 17.0369 20.8489 17.5149C20.8489 20.0939 22.5679 22.4819 24.5739 24.2009C24.4779 24.2969 24.1919 24.2969 24.0009 24.2969C23.6189 24.2969 23.3329 24.2969 23.1419 24.2009C23.6199 25.3469 24.6699 26.7799 25.1479 27.4489C25.8159 27.3529 26.7719 27.2579 27.4399 27.2579C28.1079 27.2579 28.2039 27.6399 28.2039 28.0219C28.2039 28.5949 27.9179 29.0729 27.6309 29.3589C27.4399 29.0719 27.2489 28.5949 26.0069 28.5949L25.8159 28.6899C26.1979 29.0719 27.3439 29.9319 27.3439 30.6959C27.3439 31.1739 26.7709 31.9379 26.1019 31.9379V31.5559C26.1019 30.8879 25.6239 30.2189 25.1469 29.7409V30.0279C25.1469 31.4609 25.0509 32.1299 24.0959 32.1299C23.7139 32.1299 23.3319 31.8429 23.2369 31.7479C23.9049 31.2699 23.9049 30.7929 23.9049 30.0289V29.3599V28.7869C23.6189 28.6909 23.4279 28.6909 23.2369 28.6909C23.2369 28.6909 21.8999 28.5959 21.6129 29.2639C21.2309 28.9779 20.7539 28.4999 20.7539 28.0219C20.7539 27.6399 20.9449 27.2579 21.6129 27.2579C21.8039 27.2579 22.6639 27.4489 23.2369 27.4489C23.1409 27.0669 22.2809 25.9209 21.6129 25.0609C21.5169 25.4429 21.3269 25.7289 21.0399 26.0159C20.9449 25.5389 20.6579 23.8189 19.7979 22.7679C19.7029 23.4369 19.6069 24.2009 19.6069 25.6329C19.6069 29.1669 20.4669 31.7459 22.1859 32.2239C21.9949 32.7019 21.5169 32.9879 20.9439 32.9879C20.3709 32.9879 19.9879 32.3199 19.6069 31.5549C19.4159 32.1279 18.8429 33.3699 18.3649 33.3699C17.7919 33.3699 17.3139 32.1279 17.1229 31.5549C16.7409 32.3189 16.3589 32.9879 15.6899 32.9879C15.2119 32.9879 14.7349 32.7009 14.4479 32.2239C16.2629 31.7459 17.1219 29.1669 17.1219 25.6329C17.1219 24.1999 17.0259 23.4369 16.9309 22.7679C16.0709 23.8189 15.7849 25.5389 15.6889 26.0159C15.3069 25.7289 15.2109 25.4429 15.1159 25.0609C14.3519 25.9209 13.5879 27.0669 13.3969 27.4489C14.0649 27.4489 14.8299 27.2579 15.1159 27.2579C15.7849 27.2579 15.9759 27.6399 15.9759 28.0219C15.9759 28.4999 15.4029 28.9779 15.1159 29.2639C14.7339 28.5959 13.4919 28.6909 13.4919 28.6909C13.2059 28.6909 13.1099 28.6909 12.8239 28.7869V30.0279C12.8239 30.7919 12.8239 31.2699 13.3969 31.7469C13.3019 31.8429 13.0149 32.1289 12.6329 32.1289C11.6779 32.1289 11.5819 31.4609 11.5819 30.0269V29.7399C11.1039 30.2179 10.6269 30.8859 10.6269 31.5549C10.6269 31.6509 10.5309 31.7459 10.6269 31.9369C9.86288 31.9369 9.38488 31.1719 9.38488 30.6949C9.38488 29.9309 10.5309 29.0709 10.9129 28.6889L10.7219 28.5939C9.47988 28.5939 9.28888 29.0719 9.09788 29.3579C8.81188 29.0709 8.52488 28.5939 8.52488 28.0209C8.52488 27.6389 8.62088 27.2569 9.28988 27.2569C9.86288 27.2569 10.9139 27.3529 11.5819 27.4479C12.0599 26.7789 13.1099 25.3459 13.5879 24.1999C13.3969 24.2959 13.1099 24.2959 12.7289 24.2959C12.4419 24.2959 12.2509 24.2959 12.1559 24.1999C14.1619 22.4809 15.8809 20.0929 15.8809 17.5139C15.8809 17.0359 15.7859 16.6539 15.6899 16.1769H15.4999L10.2469 24.4869C8.71888 26.9699 7.47688 26.9699 5.66188 26.9699C7.18988 25.8239 8.24088 24.2949 8.71888 23.5309L13.5899 15.6989L12.8259 15.4119L8.43188 22.3849C6.90388 24.7729 5.66188 24.7729 3.84688 24.7729C5.37588 23.6269 6.33088 22.0989 6.80788 21.3349L11.0099 14.6489L10.3419 14.1709L6.90288 19.7109C5.37488 22.1939 4.13288 22.0989 2.31888 22.0989C3.84688 20.9529 4.80188 19.5199 5.27988 18.6609L8.81388 13.0259L8.24088 12.4529L5.75788 16.4649C4.13388 18.9479 2.98788 18.8529 1.07788 18.8529C2.60588 17.7069 3.65688 16.2739 4.13388 15.5099L6.99988 10.8289C6.90388 10.5429 6.71288 10.2559 6.61788 9.87386L5.18488 12.2619C3.65688 14.7449 2.41488 14.6499 0.504883 14.6499C2.03288 13.5039 3.08388 11.9759 3.56188 11.2119L6.42688 6.72286C6.71388 5.28986 7.38288 3.95286 8.52788 2.99786C8.14588 2.80686 7.85988 2.71086 7.66888 2.51986C9.48388 2.51986 11.3939 1.56486 12.3499 1.56486C13.0179 1.56486 13.4959 2.04286 13.4959 2.51986C13.4009 3.09286 12.8279 3.66586 11.7769 3.66586C11.4899 3.66586 11.2039 3.66586 10.8209 3.57086C10.2479 4.42986 9.77088 5.19486 9.77088 6.24486C9.77088 8.24986 12.1589 9.77886 14.5469 9.77886H14.9289C15.4069 8.15486 16.4569 7.10486 17.2209 6.05386C16.2659 5.67186 15.2149 4.71686 15.2149 4.33386V4.23986C15.3099 4.23986 17.2209 4.81286 17.4119 4.90786H17.5069C17.6979 4.81286 17.8889 4.52586 17.8889 4.42986C17.6979 4.42986 16.5519 4.33386 15.7879 3.95186C15.1189 3.76086 14.8319 3.37886 14.8319 3.18786C15.0229 3.18786 15.7879 3.56986 16.8379 3.56986C17.2199 3.56986 17.3149 3.56986 17.6969 3.47386C17.4099 2.80586 16.9329 2.32786 16.3599 2.32786C16.0729 2.32786 15.5959 2.42386 15.1179 2.61486C14.8309 2.13686 14.5449 1.56386 14.5449 1.18186C14.5449 0.799858 14.9269 0.321857 16.0729 0.321857C16.3599 0.321857 16.6459 0.416859 16.9329 0.416859C17.2199 0.416859 17.3149 0.512861 17.6009 0.607861L17.5049 0.416859C17.5049 0.321859 17.6959 0.130859 18.1739 0.130859C19.1289 0.130859 20.0839 0.416859 21.2309 0.416859C21.5169 0.416859 21.7089 0.416857 21.8989 0.321857C21.8029 0.608857 21.5169 0.894858 21.2309 1.18186C21.4209 1.46786 21.8989 2.04086 21.8989 2.99586C21.8989 4.61986 20.8479 5.86086 20.8479 7.48486C20.8489 8.44186 21.5169 9.30186 21.8039 9.77986V9.77986ZM19.0339 2.23386C19.8939 2.42486 20.4669 1.37386 19.6069 1.18386C19.7029 1.46986 19.2249 1.75686 19.2249 1.75686C19.2249 1.75686 18.9379 1.27886 19.2249 0.992859C18.7469 0.801859 18.6519 1.08886 18.6519 1.37486C18.8429 1.66086 18.9379 1.94686 19.0339 2.23386ZM18.2699 3.95286C18.4609 3.57086 18.6519 3.18886 18.6519 2.71086C18.6519 1.37386 17.5059 0.70586 16.0729 0.70586C15.3089 0.70586 14.9269 0.991857 14.9269 1.18386C14.9269 1.46986 15.2139 2.04286 15.3089 2.13886C15.5959 2.04286 16.0729 1.94786 16.3599 1.94786C17.3139 1.94686 18.0789 2.99786 18.2699 3.95286ZM8.90888 6.34086C8.90888 5.00386 9.76888 4.04886 10.2459 3.47586L9.86388 3.38086C9.48188 3.76286 8.14388 5.19486 8.14388 6.91486C8.14388 9.97186 11.2959 12.7409 14.7349 12.8369C14.7349 12.4549 14.6389 12.0729 14.6389 11.6909L14.7349 11.0229C11.5829 11.0209 8.90888 8.82386 8.90888 6.34086V6.34086ZM14.9269 24.6799C14.8309 24.2979 14.7359 24.1069 14.3539 24.1069H13.9719C13.5899 25.2529 11.9659 27.4499 11.6799 27.8319C11.0109 27.7359 10.0559 27.5449 9.29188 27.5449C9.10088 27.5449 8.81388 27.5449 8.81388 28.0229C8.81388 28.2139 8.90888 28.6909 9.09988 28.8829C9.38688 28.4049 10.0559 28.3099 10.7239 28.3099C11.0099 28.3099 11.3919 28.4059 11.4879 28.4059C10.5319 29.3609 9.67288 30.2199 9.67288 30.6979C9.67288 30.9849 9.95988 31.3669 10.2459 31.5579C10.2459 30.7939 11.0099 29.6479 11.8699 29.0749V30.0299C11.8699 31.4629 12.0599 31.7489 12.6339 31.7489H12.9209C12.6339 31.3669 12.5389 30.8899 12.5389 30.0299V29.3599C12.5389 28.9779 12.4429 28.6909 12.4429 28.4999C12.6339 28.4049 13.1109 28.4049 13.4929 28.4049C14.2579 28.4049 14.7349 28.4049 15.1169 28.7869C15.3079 28.5959 15.5949 28.2139 15.5949 28.0229C15.5949 27.6409 15.4039 27.6409 15.1169 27.6409C14.7349 27.6409 14.4489 27.7359 12.9199 27.7359C13.2079 26.9729 14.0669 25.8259 14.9269 24.6799V24.6799ZM23.8099 27.7359C22.2819 27.7359 21.9949 27.6409 21.6129 27.6409C21.3269 27.6409 21.1349 27.6409 21.1349 28.0229C21.1349 28.2139 21.4209 28.5959 21.6129 28.7869C21.9949 28.4049 22.4719 28.4049 23.2369 28.4049C23.6189 28.4049 24.0959 28.4049 24.2869 28.4999C24.2869 28.6909 24.1919 28.9779 24.1919 29.3599V30.0279C24.1919 30.8879 24.0959 31.3649 23.8099 31.7469H24.0969C24.6699 31.7469 24.8609 31.4609 24.8609 30.0279V29.0729C25.6249 29.6459 26.4849 30.7919 26.4849 31.5559C26.6759 31.3649 27.0579 30.9829 27.0579 30.6959C27.0579 30.2179 26.1029 29.3589 25.2439 28.4039C25.3389 28.4039 25.7219 28.3079 26.0079 28.3079C26.6769 28.3079 27.3449 28.4039 27.6319 28.8809C27.8229 28.6899 27.9189 28.2119 27.9189 28.0209C27.9189 27.5429 27.6319 27.5429 27.4409 27.5429C26.6769 27.5429 25.7219 27.7339 25.0529 27.8299C24.7659 27.4479 23.1429 25.3469 22.7609 24.1049H22.2829C21.9009 24.1049 21.8049 24.2959 21.7099 24.6779C22.6639 25.8259 23.5229 26.9729 23.8099 27.7359V27.7359ZM28.4899 6.91386C28.4899 5.19486 27.2489 3.76186 26.7709 3.37986L26.4839 3.47486C26.9619 4.04786 27.8209 5.00286 27.8209 6.33986C27.8209 8.82286 25.1469 11.0209 22.0899 11.0209V12.8349C25.5289 12.7399 28.4899 9.87486 28.4899 6.91386V6.91386ZM14.5449 32.2259V32.3219V32.2259ZM14.5449 32.3209V32.2249V32.3209Z" fill="#fff"/>
<path d="M45 35V23H49V35H45Z" fill="#FFF22D"/>
<path d="M45 23V13H49V23H45Z" fill="#CC2229"/>
<path d="M45 13V1H49V13H45Z" fill="black"/>
<path fill-rule="evenodd" clip-rule="evenodd" d="M64.786 13.5999L63.831 10.4479H59.15L58.195 13.5999H56.666L60.678 1.46989H62.397L66.41 13.5999H64.786ZM61.538 2.99789L59.532 9.11089H63.353L61.538 2.99789ZM72.904 13.5999V12.2629C72.426 13.3129 71.662 13.6959 70.612 13.6959C69.084 13.6959 68.033 12.8359 68.033 10.8299V4.71689H69.466V10.4479C69.466 11.8809 70.039 12.4539 70.994 12.4539C72.14 12.4539 72.809 11.6899 72.809 10.0659V4.71689H74.337V13.5989H72.904V13.5999V13.5999ZM78.922 13.6959C78.1024 13.6946 77.291 13.5322 76.534 13.2179L76.63 11.8809C77.299 12.2629 77.967 12.5489 78.732 12.5489C79.878 12.5489 80.451 11.9759 80.451 11.3069C80.451 9.20589 76.534 10.0659 76.534 7.19989C76.534 5.67189 77.68 4.62089 79.4 4.62089C80.164 4.62089 80.833 4.71589 81.311 4.90689L81.215 6.14889C80.737 5.95789 80.164 5.76689 79.496 5.76689C78.54 5.76689 78.063 6.24489 78.063 7.00889C78.063 8.82289 81.788 8.24989 81.788 11.0209C81.788 12.4539 80.832 13.6959 78.922 13.6959V13.6959ZM92.295 13.5999H90.574L88.76 6.05489H88.664L86.945 13.5999H85.321L82.933 4.71689H84.461L86.18 12.1669L87.899 4.71689H89.618L91.434 12.1669L93.153 4.71689H94.585L92.295 13.5999V13.5999ZM100.508 3.09389C100.031 3.09389 99.649 2.61589 99.649 2.23389C99.649 1.75589 100.032 1.27789 100.508 1.27789C100.987 1.27789 101.367 1.75589 101.367 2.23389C101.367 2.61589 100.986 3.09389 100.508 3.09389ZM97.738 3.09389C97.166 3.09389 96.783 2.61589 96.783 2.23389C96.783 1.75589 97.166 1.27789 97.738 1.27789C98.121 1.27789 98.502 1.75589 98.502 2.23389C98.502 2.61589 98.121 3.09389 97.738 3.09389ZM100.891 13.5999L100.795 12.3579C100.318 13.0269 99.649 13.6949 98.311 13.6949C96.784 13.6949 95.733 12.8349 95.733 11.1159C95.733 9.39689 96.879 8.15489 99.936 8.15489H100.795V7.77289C100.795 7.10489 100.699 6.72189 100.412 6.33989C100.127 5.95789 99.553 5.76689 98.98 5.76689C98.025 5.76689 97.166 6.14889 96.687 6.72289L96.496 5.28989C97.262 4.81189 98.121 4.62189 98.98 4.62189C100.318 4.62189 101.082 5.09989 101.367 5.38589C101.75 5.76789 102.133 6.34089 102.133 7.58289V12.2629C102.133 12.7399 102.133 13.3129 102.229 13.5999H100.891V13.5999ZM100.795 9.20689H99.744C98.025 9.20689 97.166 10.0669 97.166 11.0219C97.166 11.9769 97.643 12.6459 98.693 12.6459C99.935 12.6459 100.795 11.5959 100.795 10.3539V9.20689V9.20689ZM108.246 5.95889C107.1 5.95889 106.334 6.91389 106.334 8.91989V13.5999H104.807V6.62689C104.807 5.95889 104.807 5.19389 104.711 4.71689H106.145L106.241 6.05389C106.718 5.00289 107.481 4.62089 108.819 4.62089V6.05389C108.627 5.95889 108.436 5.95889 108.246 5.95889V5.95889ZM113.117 13.6959C111.779 13.6959 111.015 13.2179 111.015 11.5949V5.86389H109.677V4.71789H111.015V2.90289L112.542 2.42489V4.71689H114.356V5.86289H112.542V11.1159C112.542 12.1669 112.733 12.5489 113.401 12.5489C113.784 12.5489 114.071 12.4539 114.356 12.2629V13.5049C113.977 13.5999 113.498 13.6959 113.117 13.6959V13.6959ZM117.129 2.90189C116.65 2.90189 116.172 2.51989 116.172 2.04289C116.172 1.46989 116.651 1.08789 117.129 1.08789C117.606 1.08789 117.988 1.46989 117.988 2.04289C117.988 2.15581 117.966 2.26768 117.923 2.37208C117.88 2.47648 117.817 2.57133 117.737 2.65118C117.657 2.73102 117.563 2.79428 117.458 2.83731C117.354 2.88034 117.242 2.90229 117.129 2.90189V2.90189ZM116.363 4.71689H117.892V13.5999H116.363V4.71689ZM126.871 6.62689V13.9819C126.871 16.4649 125.057 17.4199 123.144 17.4199C122.38 17.4199 121.14 17.2289 120.47 16.9419L120.566 15.4139C121.234 15.8919 122.191 16.1779 123.05 16.1779C124.864 16.1779 125.532 15.1269 125.532 13.5989V12.2619H125.436C124.864 13.2169 124.1 13.6949 123.143 13.6949C121.329 13.6949 120.088 12.2619 120.088 9.11089C120.088 6.05389 121.328 4.62189 123.334 4.62189C124.195 4.62189 125.055 5.09989 125.531 5.95889V4.71689H126.965C126.967 5.19489 126.871 5.95889 126.871 6.62689V6.62689ZM123.527 5.76789C122.191 5.76789 121.521 6.91389 121.521 9.11189C121.521 11.4039 122.191 12.5499 123.527 12.5499C124.865 12.5499 125.437 11.4039 125.437 9.11189C125.438 6.91389 124.865 5.76789 123.527 5.76789ZM130.596 9.58889C130.596 11.6899 131.36 12.6449 132.985 12.6449C133.749 12.6449 134.512 12.2629 135.087 11.8809V13.2179C134.417 13.5049 133.558 13.6959 132.603 13.6959C130.31 13.6959 129.068 11.9769 129.068 9.11189C129.068 6.34089 130.31 4.62289 132.507 4.62289C134.513 4.62289 135.659 6.15089 135.659 8.82489V9.58989H130.596V9.58889V9.58889ZM132.41 5.67189C131.455 5.67189 130.596 6.43589 130.596 8.44189H134.129C134.129 6.62689 133.557 5.67189 132.41 5.67189ZM139.574 13.6959C138.754 13.6945 137.942 13.5321 137.185 13.2179L137.281 11.8809C137.951 12.2629 138.619 12.5489 139.383 12.5489C140.529 12.5489 141.102 11.9759 141.102 11.3069C141.102 9.20589 137.186 10.0659 137.186 7.19989C137.186 5.67189 138.332 4.62089 140.051 4.62089C140.817 4.62089 141.485 4.71589 141.963 4.90689L141.867 6.14889C141.388 5.95789 140.816 5.76689 140.146 5.76689C139.191 5.76689 138.714 6.24489 138.714 7.00889C138.714 8.82289 142.534 8.24989 142.534 11.0209C142.535 12.4539 141.484 13.6959 139.574 13.6959ZM156.098 13.5999L155.143 10.4479H150.463L149.508 13.5999H147.981L152.086 1.46989H153.711L157.723 13.5999H156.098V13.5999ZM152.852 2.99789L150.942 9.11089H154.762L152.852 2.99789ZM168.324 13.5999V7.48689C168.324 6.34089 167.847 5.86289 166.986 5.86289C165.935 5.86289 165.363 6.53189 165.363 8.05989V13.5999H163.836V7.48689C163.836 6.34089 163.357 5.86289 162.498 5.86289C161.447 5.86289 160.875 6.53189 160.875 8.05989V13.5999H159.346V6.72289C159.346 5.95889 159.346 5.19489 159.25 4.71689H160.684L160.78 6.05389C161.257 5.00289 162.02 4.62089 162.975 4.62089C163.93 4.62089 164.6 5.09889 165.077 5.95789C165.556 5.09889 166.223 4.62089 167.274 4.62089C168.801 4.62089 169.852 5.47989 169.852 7.39089V13.5999H168.324V13.5999ZM175.01 13.6959C173.674 13.6959 172.908 13.2179 172.908 11.5949V5.86389H171.572V4.71789H172.908V2.90289L174.437 2.42489V4.71689H176.251V5.86289H174.437V11.1159C174.437 12.1669 174.628 12.5489 175.296 12.5489C175.679 12.5489 175.964 12.4539 176.251 12.2629V13.5049C175.869 13.5999 175.393 13.6959 175.01 13.6959V13.6959Z" fill="#fff"/>
</svg>
