<svg viewBox="0 0 278 264" fill="black" xmlns="http://www.w3.org/2000/svg">
<path d="M262 124.82C262.16 127.21 262.25 129.6 262.25 132C262.224 166.458 248.528 199.498 224.169 223.87C199.811 248.242 166.778 261.955 132.32 262C60.6701 262 2.38007 203.65 2.38007 132C2.38007 60.35 60.6701 2.05 132.32 2.05C169.98 2.05 206.47 22.12 231.15 51.6C231.65 51.16 232.15 50.72 232.67 50.28C229.623 46.6533 226.37 43.1467 222.91 39.76C197.06 14.48 164 0 132.32 0C59.5301 0 0.320068 59.23 0.320068 132C0.320068 204.77 59.5401 264 132.32 264C205.1 264 264.32 204.78 264.32 132C264.32 129.87 264.25 127.74 264.13 125.61C263.43 125.35 262.72 125.09 262 124.82Z"/>
<path d="M264 69.46C264 69.46 268 51.17 259.39 35.15C253.05 12.48 250.58 3.78998 250.58 3.78998C250.58 3.78998 248.2 4.07998 246.42 10.18C244.64 16.28 245.3 28.18 245.3 28.18C245.3 28.18 245.11 32.83 241.02 47.58C240.689 48.7688 240.638 50.018 240.87 51.23C243.87 66.99 243.52 63.14 243.92 69.69C224 59.9 213.67 58.9 213.67 58.9C212.35 58.5085 210.961 58.4129 209.6 58.62C205 59.57 152.68 64.1 155.09 67.24C169.93 70.51 182.4 73.29 196.76 82.64C203.85 87.25 218.31 89.95 236.53 92.76C235.95 112.07 233.79 103.86 232.64 122.94C226.9 129.88 220.48 146.34 216.39 158.81C213.08 175.49 213.08 178.93 213.08 178.93C213.08 178.93 222.9 163.42 226.78 153.32C227.391 151.742 228.305 150.298 229.47 149.07C236.47 141.62 237.6 141.39 237.6 141.39C237.6 141.39 240.92 161.39 250.76 166.86C247.21 156.33 233.76 129.54 265.39 97.2C267.75 95.06 272.21 92.36 269.22 84.73C272.103 84.9762 274.946 85.5637 277.69 86.48C276.671 84.067 276.278 81.4353 276.55 78.83C277 74.6 275.36 66.69 264 69.46Z"/>
<path d="M69.1401 100.87C69.0036 100.756 68.8562 100.655 68.7001 100.57C68.3353 100.388 67.9615 100.224 67.5801 100.08C67.0483 99.8636 66.4901 99.719 65.9201 99.65C65.2492 99.5862 64.5723 99.6403 63.9201 99.81C63.165 99.9873 62.4583 100.329 61.8501 100.81C61.0714 101.491 60.4182 102.303 59.9201 103.21C59.1942 104.497 58.6363 105.871 58.2601 107.3C57.721 109.36 57.3465 111.46 57.1401 113.58C56.8265 116.476 56.6795 119.387 56.7001 122.3V141H64.1201V145.48H56.7401C56.7401 147.147 56.7401 149.733 56.7401 153.24C56.7401 156.76 56.7401 159.15 56.6701 160.42V192.21H46.1001V122.71C46.1001 112.877 46.9201 105.57 48.5601 100.79C50.2001 96.01 52.9434 93.01 56.7901 91.79C58.0519 91.4918 59.3735 91.5718 60.5901 92.02C62.3722 92.6578 63.9909 93.6824 65.3301 95.02C67.0425 96.6432 68.3479 98.6475 69.1401 100.87V100.87Z"/>
<path d="M86.5601 134.84C84.7375 137.717 82.4575 140.277 79.8101 142.42C80.195 143.813 80.8774 145.106 81.8101 146.21C82.4457 147 83.3131 147.57 84.2901 147.84C85.0673 148.014 85.8651 148.078 86.6601 148.03C87.3018 147.998 87.9337 147.859 88.5301 147.62L89.2201 147.29C88.1438 149.373 86.376 151.017 84.2201 151.94C82.0101 152.94 80.2201 153.27 78.7701 152.94C77.2635 152.63 75.8536 151.963 74.6595 150.993C73.4655 150.024 72.5224 148.781 71.9101 147.37C70.5368 144.403 69.8501 139.86 69.8501 133.74C69.7442 128.154 69.9379 122.566 70.4301 117C71.0968 112.227 72.5701 109.17 74.8501 107.83C75.9786 107.197 77.2464 106.853 78.5401 106.83C79.4901 106.83 80.4201 106.83 81.3201 106.95C82.9895 106.995 84.6379 107.334 86.1901 107.95C88.2446 108.741 89.9262 110.276 90.9001 112.25C92.4334 115.337 92.5834 119.337 91.3501 124.25C90.3127 128.007 88.6967 131.58 86.5601 134.84V134.84ZM79.1901 139.39C81.117 137.6 82.7983 135.562 84.1901 133.33C86.1481 130.308 87.6382 127.007 88.6101 123.54C89.6968 119.393 89.6268 116.09 88.4001 113.63C87.7904 112.337 86.7209 111.317 85.4001 110.77C82.9401 109.917 81.2201 110.583 80.2401 112.77C79.4134 114.923 78.9401 119.47 78.8201 126.41C78.8201 128.02 78.8201 130.53 78.8201 133.94C78.8019 135.764 78.9256 137.586 79.1901 139.39V139.39Z"/>
<path d="M104.5 133.94C104.47 136.193 104.661 138.444 105.07 140.66C105.313 142.156 105.817 143.599 106.56 144.92C107.089 145.782 107.766 146.543 108.56 147.17C109.193 147.673 109.963 147.973 110.77 148.03C111.438 148.054 112.106 148.027 112.77 147.95C113.285 147.891 113.788 147.753 114.26 147.54L114.84 147.29C113.76 149.37 111.993 151.013 109.84 151.94C107.63 152.94 105.84 153.27 104.4 152.94C102.893 152.632 101.482 151.965 100.288 150.995C99.0935 150.025 98.1509 148.782 97.54 147.37C96.16 144.403 95.47 139.86 95.47 133.74V126.2C95.47 120.093 96.16 115.55 97.54 112.57C98.1603 111.146 99.1183 109.895 100.331 108.924C101.544 107.954 102.975 107.293 104.5 107C105.568 106.818 106.662 106.866 107.71 107.14C109.15 107.504 110.507 108.138 111.71 109.01C113.065 109.919 114.166 111.158 114.91 112.61C114.792 112.54 114.668 112.48 114.54 112.43C114.37 112.36 114.06 112.26 113.6 112.12C113.142 111.985 112.674 111.888 112.2 111.83C111.656 111.78 111.107 111.807 110.57 111.91C109.956 112.017 109.367 112.234 108.83 112.55C108.199 112.946 107.65 113.459 107.21 114.06C106.623 114.833 106.154 115.689 105.82 116.6C105.35 117.864 105.014 119.175 104.82 120.51C104.567 122.315 104.446 124.137 104.46 125.96L104.5 133.94Z"/>
<path d="M151.05 139.67C151.446 142.141 150.865 144.669 149.43 146.72C147.914 148.917 145.815 150.649 143.37 151.72C140.77 152.913 137.94 153.521 135.08 153.5C133.317 153.565 131.553 153.499 129.8 153.3H129.6C129.53 153.291 129.46 153.291 129.39 153.3H129.27C129.227 153.292 129.183 153.292 129.14 153.3C126.754 153.041 124.451 152.271 122.39 151.04C120.26 149.65 118.95 148.47 118.46 147.48C118.28 146.9 118.28 146.28 118.46 145.7C118.613 145.085 118.831 144.489 119.11 143.92L119.56 143.1C119.493 143.884 119.649 144.671 120.01 145.37C120.481 146.289 121.123 147.11 121.9 147.79C123.03 148.74 124.349 149.439 125.77 149.84C127.713 150.438 129.737 150.734 131.77 150.72C134.803 150.746 137.751 149.717 140.11 147.81C141.092 147.006 141.826 145.941 142.227 144.738C142.629 143.535 142.682 142.242 142.38 141.01C142.114 139.989 141.542 139.075 140.74 138.39C139.722 137.468 138.601 136.666 137.4 136C136.127 135.26 134.74 134.487 133.24 133.68C131.702 132.856 130.219 131.935 128.8 130.92C127.375 129.906 126.037 128.776 124.8 127.54C123.542 126.261 122.55 124.745 121.88 123.08C121.128 121.257 120.751 119.302 120.77 117.33C120.756 115.901 121.099 114.492 121.77 113.23C122.397 112.046 123.307 111.036 124.42 110.29C125.585 109.492 126.832 108.822 128.14 108.29C129.518 107.736 130.964 107.369 132.44 107.2C133.91 107.04 135.36 106.93 136.78 106.86C138.056 106.781 139.337 106.869 140.59 107.12V107.12C142.06 107.269 143.505 107.605 144.89 108.12C145.289 108.211 145.666 108.384 145.996 108.626C146.326 108.869 146.603 109.176 146.81 109.53C147.232 110.148 147.499 110.858 147.59 111.6L147.67 112.6C146.31 110.99 143.78 110.07 140.1 109.85H138C136.868 109.796 135.737 109.967 134.672 110.355C133.608 110.743 132.631 111.34 131.8 112.11C131.073 112.763 130.496 113.566 130.109 114.464C129.723 115.362 129.535 116.333 129.56 117.31C129.641 118.758 130.111 120.157 130.92 121.36C131.7 122.524 132.699 123.526 133.86 124.31C135.102 125.134 136.394 125.879 137.73 126.54C139.137 127.24 140.557 127.97 141.99 128.73C143.382 129.473 144.719 130.315 145.99 131.25C148.725 133.29 150.543 136.326 151.05 139.7V139.67Z"/>
<path d="M175.25 126.12L187.45 144.05L185.65 152.24C185.604 152.556 185.454 152.849 185.224 153.071C184.994 153.293 184.698 153.434 184.38 153.47C184.073 153.554 183.747 153.536 183.452 153.418C183.156 153.301 182.906 153.091 182.74 152.82L169.89 134L163.33 143.79V153.49H154.49V97.3L160.59 91.56C160.811 91.3261 161.101 91.1689 161.417 91.1113C161.734 91.0538 162.061 91.0988 162.35 91.24C162.655 91.3408 162.919 91.5395 163.1 91.8052C163.28 92.071 163.368 92.3891 163.35 92.71V138.86L184.85 106.92L187.14 108.47L175.25 126.12Z"/>
<path d="M207.47 134.84C205.65 137.719 203.37 140.28 200.72 142.42C201.105 143.813 201.787 145.106 202.72 146.21C203.356 147 204.223 147.57 205.2 147.84C205.977 148.014 206.775 148.078 207.57 148.03C208.212 147.999 208.844 147.86 209.44 147.62L210.13 147.29C209.054 149.373 207.286 151.017 205.13 151.94C202.92 152.94 201.13 153.27 199.68 152.94C198.173 152.63 196.764 151.963 195.57 150.993C194.375 150.024 193.432 148.781 192.82 147.37C191.447 144.403 190.76 139.86 190.76 133.74C190.652 128.164 190.842 122.586 191.33 117.03C191.997 112.257 193.47 109.2 195.75 107.86C196.879 107.227 198.146 106.883 199.44 106.86C200.44 106.86 201.32 106.86 202.22 106.98C203.889 107.025 205.538 107.364 207.09 107.98C209.145 108.771 210.826 110.306 211.8 112.28C213.333 115.367 213.483 119.367 212.25 124.28C211.213 128.026 209.6 131.589 207.47 134.84ZM200.1 139.39C202.027 137.6 203.708 135.562 205.1 133.33C207.058 130.308 208.548 127.007 209.52 123.54C210.607 119.393 210.54 116.09 209.32 113.63C208.706 112.34 207.638 111.322 206.32 110.77C203.86 109.917 202.14 110.583 201.16 112.77C200.26 114.877 199.767 119.41 199.68 126.37C199.68 127.98 199.68 130.49 199.68 133.9C199.676 135.738 199.817 137.574 200.1 139.39V139.39Z"/>
</svg>
