<svg xmlns="http://www.w3.org/2000/svg" xmlns:xlink="http://www.w3.org/1999/xlink" viewBox="0 0 266.16 253.34">
  <defs>
    <clipPath id="clip-path">
      <rect x="157.59" y="14.02" width="153.63" height="153.63" transform="translate(-7.38 159.65) rotate(-37.07)" style="fill: none"/>
    </clipPath>
    <linearGradient id="Névtelen_színátmenet_4" data-name="Névtelen színátmenet 4" x1="8.45" y1="172.05" x2="239.04" y2="83.53" gradientUnits="userSpaceOnUse">
      <stop offset="0.65"/>
      <stop offset="0.7" stop-color="#000506"/>
      <stop offset="0.77" stop-color="#021317"/>
      <stop offset="0.84" stop-color="#032b33"/>
      <stop offset="0.92" stop-color="#064b59"/>
    </linearGradient>
  </defs>
  <title>fecseklogo</title>
  <g style="isolation: isolate">
    <g id="Layer_2" data-name="Layer 2">
      <g id="Réteg_1" data-name="Réteg 1">
        <g>
          <path d="M251.85,119.74a.73.73,0,0,0-.69.78c.12,2,.19,4.1.19,6.15A124.83,124.83,0,0,1,125.69,251.35C57.88,250.82,2.51,195.46,2,127.64A124.82,124.82,0,0,1,126.67,2C162.56,2,197.35,21,221,49a.72.72,0,0,0,1,.07l.37-.31a.73.73,0,0,0,.07-1q-4.18-4.93-8.89-9.54C188.78,13.91,157.1,0,126.67,0A126.81,126.81,0,0,0,0,127.66C.53,196.55,56.78,252.8,125.68,253.33A126.81,126.81,0,0,0,253.34,126.67c0-1.81-.08-4.29-.19-6.26a.75.75,0,0,0-.79-.71Z" style="fill: url(#Névtelen_színátmenet_4)"/>
          <g>
            <g style="mask: url(#mask)">
              <path d="M253,66.66s3.86-17.54-4.43-32.92C242.53,12,240.16,3.66,240.16,3.66s-2.28.28-4,6.13-1.08,17.26-1.08,17.26-.18,4.46-4.1,18.62a7.49,7.49,0,0,0-.14,3.49c2.89,15.13,2.54,11.43,2.92,17.72-19.17-9.39-29-10.34-29-10.34a9,9,0,0,0-3.91-.27c-4.42.91-54.61,5.25-52.3,8.27,14.24,3.14,26.21,5.8,40,14.77,6.8,4.43,20.67,7,38.15,9.72-.55,18.52-2.63,10.64-3.73,29-5.51,6.66-11.67,22.45-15.59,34.41-3.18,16-3.18,19.32-3.18,19.32s9.43-14.89,13.14-24.58a12.84,12.84,0,0,1,2.58-4.08c6.75-7.14,7.81-7.37,7.81-7.37s3.18,19.22,12.63,24.44c-3.41-10.11-16.31-35.81,14-66.84,2.26-2.06,6.55-4.64,3.67-12A35,35,0,0,1,266.16,83a14.88,14.88,0,0,1-1.1-7.34C265.52,71.6,263.92,64,253,66.66Z" style="fill: #fff;mix-blend-mode: overlay"/>
            </g>
            <g style="mask: url(#mask-2)">
              <path d="M253,66.66s3.86-17.54-4.43-32.92C242.53,12,240.16,3.66,240.16,3.66s-2.28.28-4,6.13-1.08,17.26-1.08,17.26-.18,4.46-4.1,18.62a7.49,7.49,0,0,0-.14,3.49c2.89,15.13,2.54,11.43,2.92,17.72-19.17-9.39-29-10.34-29-10.34a9,9,0,0,0-3.91-.27c-4.42.91-54.61,5.25-52.3,8.27,14.24,3.14,26.21,5.8,40,14.77,6.8,4.43,20.67,7,38.15,9.72-.55,18.52-2.63,10.64-3.73,29-5.51,6.66-11.67,22.45-15.59,34.41-3.18,16-3.18,19.32-3.18,19.32s9.43-14.89,13.14-24.58a12.84,12.84,0,0,1,2.58-4.08c6.75-7.14,7.81-7.37,7.81-7.37s3.18,19.22,12.63,24.44c-3.41-10.11-16.31-35.81,14-66.84,2.26-2.06,6.55-4.64,3.67-12A35,35,0,0,1,266.16,83a14.88,14.88,0,0,1-1.1-7.34C265.52,71.6,263.92,64,253,66.66Z" style="fill: #086375"/>
            </g>
            <g style="mask: url(#mask-2)">
              <path d="M253,66.66s3.86-17.54-4.43-32.92C242.53,12,240.16,3.66,240.16,3.66s-2.28.28-4,6.13-1.08,17.26-1.08,17.26-.18,4.46-4.1,18.62a7.49,7.49,0,0,0-.14,3.49c2.89,15.13,2.54,11.43,2.92,17.72-19.17-9.39-29-10.34-29-10.34a9,9,0,0,0-3.91-.27c-4.42.91-54.61,5.25-52.3,8.27,14.24,3.14,26.21,5.8,40,14.77,6.8,4.43,20.67,7,38.15,9.72-.55,18.52-2.63,10.64-3.73,29-5.51,6.66-11.67,22.45-15.59,34.41-3.18,16-3.18,19.32-3.18,19.32s9.43-14.89,13.14-24.58a12.84,12.84,0,0,1,2.58-4.08c6.75-7.14,7.81-7.37,7.81-7.37s3.18,19.22,12.63,24.44c-3.41-10.11-16.31-35.81,14-66.84,2.26-2.06,6.55-4.64,3.67-12A35,35,0,0,1,266.16,83a14.88,14.88,0,0,1-1.1-7.34C265.52,71.6,263.92,64,253,66.66Z" style="fill: #086375;mix-blend-mode: overlay"/>
            </g>
          </g>
          <path d="M66.05,96.8a2.15,2.15,0,0,0-.42-.28A9.48,9.48,0,0,0,64.55,96,6.65,6.65,0,0,0,63,95.63a5.5,5.5,0,0,0-1.87.16,5,5,0,0,0-2,1,8.27,8.27,0,0,0-1.85,2.3,16.37,16.37,0,0,0-1.6,3.92,40.6,40.6,0,0,0-1.07,6,74.5,74.5,0,0,0-.43,8.37v17.93h7.12v4.3H54.15c0,1.59,0,4.08,0,7.44s0,5.67-.07,6.89v30.5H43.94V117.76q0-14.13,2.37-21t7.89-8.59a6.33,6.33,0,0,1,3.65.22,12.24,12.24,0,0,1,4.55,2.87A14.38,14.38,0,0,1,66.05,96.8Z" style="fill: #064b59"/>
          <path d="M82.77,129.4a29.9,29.9,0,0,1-6.48,7.27,9.67,9.67,0,0,0,1.88,3.63,4.6,4.6,0,0,0,2.38,1.57,8.22,8.22,0,0,0,2.28.18,5.4,5.4,0,0,0,1.79-.39l.66-.32a9.6,9.6,0,0,1-4.75,4.46,8.43,8.43,0,0,1-5.22,1,9.13,9.13,0,0,1-6.58-5.34q-2-4.28-2-13.08a148.28,148.28,0,0,1,.55-16q.94-6.87,4.24-8.8a7.61,7.61,0,0,1,3.54-.94q1.38,0,2.67.12a13.49,13.49,0,0,1,4.68,1,8.33,8.33,0,0,1,4.51,4.12q2.2,4.44.44,11.47A36.28,36.28,0,0,1,82.77,129.4Zm-7.07,4.36A28.47,28.47,0,0,0,80.53,128a34.34,34.34,0,0,0,4.24-9.39q1.58-6-.19-9.51a5.59,5.59,0,0,0-2.87-2.75q-3.54-1.22-4.95,2t-1.42,13q0,2.31,0,7.23A33.53,33.53,0,0,0,75.7,133.76Z"/>
          <path d="M100,128.54a32.62,32.62,0,0,0,.55,6.44,12,12,0,0,0,1.43,4.08,8,8,0,0,0,2,2.16,3.76,3.76,0,0,0,2.12.83A11,11,0,0,0,108,142a4.8,4.8,0,0,0,1.44-.39l.55-.24a9.66,9.66,0,0,1-4.76,4.46,8.43,8.43,0,0,1-5.22,1,9.13,9.13,0,0,1-6.58-5.34q-2-4.28-2-13.08v-7.23q0-8.81,2-13.08a9.13,9.13,0,0,1,6.58-5.34,7.16,7.16,0,0,1,3.08.13,11.23,11.23,0,0,1,3.83,1.79,9.25,9.25,0,0,1,3.07,3.46,3,3,0,0,0-.36-.18c-.16-.06-.46-.16-.9-.29a8,8,0,0,0-1.34-.28,5.8,5.8,0,0,0-1.57.08,4.86,4.86,0,0,0-1.67.61,5.7,5.7,0,0,0-1.55,1.45,9.56,9.56,0,0,0-1.34,2.44,19.14,19.14,0,0,0-.9,3.75,34.45,34.45,0,0,0-.35,5.23Z"/>
          <path d="M144.65,134a9.25,9.25,0,0,1-1.56,6.75,13.83,13.83,0,0,1-5.81,4.82,19,19,0,0,1-8,1.7,33.8,33.8,0,0,1-5.06-.19l-.2,0-.2,0-.11,0-.12,0a16.06,16.06,0,0,1-6.48-2.16c-2.05-1.34-3.3-2.48-3.78-3.42a3,3,0,0,1,0-1.71A9.13,9.13,0,0,1,114,138l.43-.78a4.05,4.05,0,0,0,.44,2.18,7.89,7.89,0,0,0,1.8,2.32,10.22,10.22,0,0,0,3.72,2,18.77,18.77,0,0,0,5.71.84,12.54,12.54,0,0,0,8-2.78,6.47,6.47,0,0,0,2.18-6.53,5,5,0,0,0-1.57-2.51,17.44,17.44,0,0,0-3.13-2.28q-1.81-1.07-4-2.22a38.92,38.92,0,0,1-4.27-2.65,31.25,31.25,0,0,1-3.85-3.24,13.32,13.32,0,0,1-2.81-4.28,14.29,14.29,0,0,1-1.06-5.52,8,8,0,0,1,1-3.93,7.88,7.88,0,0,1,2.53-2.83,19.12,19.12,0,0,1,3.58-1.87,16,16,0,0,1,4.12-1c1.41-.16,2.8-.27,4.16-.33a14.08,14.08,0,0,1,3.66.25l0,0a16.68,16.68,0,0,1,4.12.91,2.87,2.87,0,0,1,1.85,1.35,4.79,4.79,0,0,1,.75,2l.07.94c-1.31-1.55-3.73-2.42-7.26-2.63h-2a8.18,8.18,0,0,0-6,2.16,6.5,6.5,0,0,0-2.14,5,7.91,7.91,0,0,0,1.3,3.89,10.4,10.4,0,0,0,2.83,2.82,31.74,31.74,0,0,0,3.71,2.15q2,1,4.08,2.1a31.37,31.37,0,0,1,3.85,2.41,12.66,12.66,0,0,1,3.11,3.38A12.52,12.52,0,0,1,144.65,134Z"/>
          <path d="M167.86,121l11.71,17.21-1.73,7.86a1.56,1.56,0,0,1-2.79.55l-12.33-18L156.43,138v9.31H148V93.38l5.85-5.5a1.45,1.45,0,0,1,1.69-.32,1.41,1.41,0,0,1,.94,1.42v44.27l20.63-30.64,2.2,1.49Z"/>
          <path d="M198.78,129.4a29.9,29.9,0,0,1-6.48,7.27,9.67,9.67,0,0,0,1.88,3.63,4.6,4.6,0,0,0,2.38,1.57,8.22,8.22,0,0,0,2.28.18,5.34,5.34,0,0,0,1.79-.39l.67-.32a9.66,9.66,0,0,1-4.76,4.46,8.43,8.43,0,0,1-5.22,1,9.13,9.13,0,0,1-6.58-5.34q-2-4.28-2-13.08a151,151,0,0,1,.55-16q.94-6.87,4.24-8.8a7.61,7.61,0,0,1,3.54-.94q1.38,0,2.67.12a13.49,13.49,0,0,1,4.68,1,8.33,8.33,0,0,1,4.51,4.12q2.2,4.44.44,11.47A36.28,36.28,0,0,1,198.78,129.4Zm-7.07,4.36a28.15,28.15,0,0,0,4.83-5.81,34,34,0,0,0,4.24-9.39q1.58-6-.19-9.51a5.59,5.59,0,0,0-2.87-2.75q-3.54-1.22-4.95,2c-.86,2-1.34,6.37-1.41,13q0,2.31,0,7.23A33.53,33.53,0,0,0,191.71,133.76Z"/>
        </g>
      </g>
    </g>
  </g>
</svg>
