<svg viewBox="0 0 123 176" fill="#FF5722" xmlns="http://www.w3.org/2000/svg">
<path d="M109 66.46C109 66.46 113 48.17 104.39 32.15C98.05 9.47998 95.58 0.789978 95.58 0.789978C95.58 0.789978 93.2 1.07998 91.42 7.17998C89.64 13.28 90.3 25.18 90.3 25.18C90.3 25.18 90.11 29.83 86.02 44.58C85.6892 45.7688 85.6378 47.018 85.87 48.23C88.87 63.99 88.52 60.14 88.92 66.69C69 56.9 58.67 55.9 58.67 55.9C57.3504 55.5085 55.9608 55.4129 54.6 55.62C50 56.57 -2.32 61.1 0.0899981 64.24C14.93 67.51 27.4 70.29 41.76 79.64C48.85 84.25 63.31 86.95 81.53 89.76C80.95 109.07 78.79 100.86 77.64 119.94C71.9 126.88 65.48 143.34 61.39 155.81C58.08 172.49 58.08 175.93 58.08 175.93C58.08 175.93 67.9 160.42 71.78 150.32C72.3914 148.742 73.3052 147.298 74.47 146.07C81.47 138.62 82.6 138.39 82.6 138.39C82.6 138.39 85.92 158.39 95.76 163.86C92.21 153.33 78.76 126.54 110.39 94.2C112.75 92.06 117.21 89.36 114.22 81.73C117.103 81.9762 119.946 82.5637 122.69 83.48C121.671 81.067 121.278 78.4353 121.55 75.83C122 71.6 120.36 63.69 109 66.46Z" />
</svg>
