<svg viewBox="0 0 224 182" fill="black" xmlns="http://www.w3.org/2000/svg">
<path d="M210 63.6999C210 63.6999 213.9 46.1999 205.6 30.7999C199.5 9.09995 197.1 0.699951 197.1 0.699951C197.1 0.699951 194.8 0.999951 193.1 6.79995C191.4 12.6 192.1 24 192.1 24C192.1 24 191.9 28.4999 188 42.5999C187.7 43.6999 187.6 44.8999 187.9 46.0999C190.8 61.1999 190.4 57.5 190.8 63.8C171.6 54.4 161.8 53.5 161.8 53.5C160.6 53.2 159.2 53 157.9 53.2C153.5 54.1 103.3 58.5 105.6 61.5C119.8 64.6 131.8 67.3 145.6 76.3C152.4 80.7 166.3 83.3 183.8 86C183.2 104.5 181.2 96.6 180.1 115C174.6 121.7 168.4 137.5 164.5 149.4C161.3 165.4 161.3 168.7 161.3 168.7C161.3 168.7 170.7 153.8 174.4 144.1C175 142.6 175.9 141.2 177 140C183.7 132.9 184.8 132.6 184.8 132.6C184.8 132.6 188 151.8 197.4 157C194 146.9 181.1 121.2 211.4 90.2C213.7 88.1 217.9 85.6 215.1 78.2C219.9 78.7 223.2 79.9 223.2 79.9C223.2 79.9 221.6 76.6 222.1 72.6C222.6 68.6 220.9 60.9999 210 63.6999Z" fill="#086375"/>
<path d="M23.0999 93.8C22.9999 93.7 22.8999 93.6 22.6999 93.5C22.4999 93.4 22.1999 93.2 21.5999 93C21.0999 92.8 20.4999 92.7 19.9999 92.6C19.4999 92.5 18.7999 92.6 18.0999 92.8C17.3999 93 16.6999 93.3 16.0999 93.8C15.4999 94.3 14.8999 95.1 14.2999 96.1C13.6999 97.2 13.0999 98.5 12.6999 100C12.2999 101.6 11.8999 103.6 11.5999 106C11.2999 108.5 11.1999 111.3 11.1999 114.4V132.3H18.2999V136.6H11.1999C11.1999 138.2 11.1999 140.7 11.1999 144C11.1999 147.4 11.1999 149.7 11.0999 150.9V181.4H0.899902V120.1V114.7C0.899902 105.3 1.6999 98.3 3.2999 93.7C4.8999 89.1 7.4999 86.2 11.1999 85.1C12.1999 84.8 13.3999 84.9 14.8999 85.3C16.2999 85.7 17.8999 86.7 19.3999 88.2C20.9999 89.7 22.1999 91.6 23.0999 93.8Z" fill="#064B59"/>
<path d="M39.7998 126.4C37.6998 129.5 35.5998 131.9 33.2998 133.7C33.7998 135.2 34.3998 136.5 35.1998 137.3C35.9998 138.2 36.7998 138.7 37.5998 138.9C38.3998 139.1 39.1998 139.1 39.8998 139.1C40.5998 139 41.1998 138.9 41.6998 138.7L42.3998 138.4C41.3998 140.4 39.7998 141.9 37.5998 142.9C35.4998 143.9 33.6998 144.2 32.3998 143.9C29.2998 143.2 27.0998 141.4 25.7998 138.6C24.4998 135.7 23.7998 131.4 23.7998 125.5C23.7998 117.6 23.9998 112.2 24.2998 109.5C24.8998 104.9 26.2998 102 28.4998 100.7C29.4998 100.1 30.6998 99.8 31.9998 99.8C32.8998 99.8 33.7998 99.8 34.6998 99.9C36.3998 100 37.9998 100.3 39.3998 100.9C41.4998 101.8 42.9998 103.2 43.8998 105C45.3998 108 45.4998 111.8 44.2998 116.5C43.3998 119.7 41.8998 123 39.7998 126.4ZM32.6998 130.8C34.3998 129.3 35.9998 127.4 37.4998 125C39.4998 121.9 40.8998 118.8 41.6998 115.6C42.6998 111.6 42.6998 108.5 41.4998 106.1C40.9998 104.9 39.9998 104 38.5998 103.4C36.1998 102.6 34.5998 103.2 33.6998 105.4C32.7998 107.4 32.3998 111.8 32.2998 118.4C32.2998 119.9 32.2998 122.4 32.2998 125.6C32.2998 127.4 32.3998 129.1 32.6998 130.8Z" />
<path d="M56.9998 125.5C56.9998 128 57.1998 130.1 57.5998 131.9C57.9998 133.7 58.3998 135.1 58.9998 136C59.5998 136.9 60.1998 137.6 60.8998 138.2C61.5998 138.7 62.2998 139 62.9998 139C63.6998 139 64.3998 139 64.8998 138.9C65.4998 138.8 65.9998 138.7 66.2998 138.5L66.8998 138.3C65.8998 140.3 64.2998 141.8 62.0998 142.8C59.9998 143.8 58.1998 144.1 56.8998 143.8C53.7998 143.1 51.5998 141.3 50.2998 138.5C48.9998 135.6 48.2998 131.3 48.2998 125.4V118.2C48.2998 112.3 48.9998 108 50.2998 105.1C51.5998 102.2 53.7998 100.5 56.8998 99.8001C57.6998 99.6001 58.7998 99.7001 59.9998 99.9001C61.1998 100.2 62.4998 100.8 63.7998 101.7C65.0998 102.6 66.1998 103.8 66.8998 105.2C66.7998 105.1 66.6998 105.1 66.4998 105C66.2998 104.9 65.9998 104.8 65.5998 104.7C65.1998 104.6 64.6998 104.5 64.2998 104.4C63.8998 104.3 63.2998 104.4 62.6998 104.5C62.0998 104.6 61.4998 104.8 60.9998 105.1C60.4998 105.4 59.9998 105.9 59.3998 106.6C58.8998 107.3 58.3998 108.1 58.0998 109C57.6998 110 57.3998 111.2 57.1998 112.8C56.9998 114.3 56.7998 116.1 56.7998 118V125.5H56.9998Z" />
<path d="M101.6 131C102 133.4 101.4 135.7 99.9998 137.8C98.5998 139.9 96.6998 141.5 94.1998 142.6C91.6998 143.7 89.0998 144.3 86.1998 144.3C84.2998 144.4 82.6998 144.3 81.0998 144.1C80.9998 144.1 80.9998 144.1 80.8998 144.1C80.7998 144.1 80.7998 144.1 80.6998 144.1H80.5998C80.4998 144.1 80.4998 144.1 80.4998 144.1C77.8998 143.7 75.6998 143 73.9998 141.9C71.9998 140.6 70.6998 139.4 70.1998 138.5C69.9998 138 69.9998 137.4 70.1998 136.8C70.3998 136.2 70.5998 135.6 70.7998 135.1L71.1998 134.3C71.0998 135 71.2998 135.7 71.5998 136.5C71.9998 137.3 72.5998 138 73.3998 138.8C74.1998 139.6 75.4998 140.2 77.0998 140.8C78.6998 141.3 80.5998 141.6 82.7998 141.6C86.1998 141.5 88.7998 140.5 90.7998 138.8C92.7998 137.1 93.4998 134.9 92.9998 132.3C92.7998 131.4 92.2998 130.6 91.3998 129.8C90.4998 129 89.4998 128.2 88.2998 127.5C87.0998 126.8 85.7998 126.1 84.2998 125.3C82.8998 124.5 81.3998 123.6 79.9998 122.6C78.5998 121.6 77.2998 120.5 76.1998 119.4C74.9998 118.2 74.0998 116.8 73.3998 115.1C72.6998 113.4 72.2998 111.6 72.2998 109.6C72.2998 108.2 72.5998 106.8 73.2998 105.7C73.8998 104.5 74.7998 103.6 75.7998 102.9C76.7998 102.2 77.9998 101.6 79.3998 101C80.6998 100.5 82.0998 100.1 83.4998 100C84.8998 99.8 86.2998 99.7 87.6998 99.7C89.0998 99.6 90.2998 99.7 91.3998 100C93.0998 100.2 94.4998 100.5 95.4998 100.9C96.2998 101.1 96.8998 101.5 97.2998 102.3C97.6998 103 97.9998 103.7 97.9998 104.3L98.0998 105.2C96.7998 103.7 94.3998 102.8 90.7998 102.6H88.7998C86.2998 102.6 84.2998 103.3 82.7998 104.8C81.2998 106.3 80.5998 107.9 80.6998 109.8C80.7998 111.3 81.1998 112.6 81.9998 113.7C82.7998 114.8 83.6998 115.8 84.7998 116.5C85.8998 117.3 87.1998 118 88.4998 118.6C89.7998 119.3 91.1998 120 92.5998 120.7C93.9998 121.4 95.2998 122.2 96.4998 123.1C97.6998 124 98.6998 125.1 99.5998 126.5C100.8 127.7 101.4 129.3 101.6 131Z" />
<path d="M124.9 118L136.6 135.2L134.9 143.1C134.8 143.8 134.4 144.1 133.7 144.3C133 144.4 132.5 144.2 132.1 143.7L119.8 125.7L113.5 135.1V144.4H105V90.4L110.9 84.9C111.4 84.4 112 84.3 112.6 84.6C113.2 84.9 113.5 85.3 113.5 86V109.8V130.3L134.1 99.7L136.3 101.2L124.9 118Z" />
<path d="M155.8 126.4C153.7 129.5 151.6 131.9 149.3 133.7C149.8 135.2 150.4 136.5 151.2 137.3C152 138.2 152.8 138.7 153.6 138.9C154.4 139.1 155.2 139.1 155.9 139.1C156.6 139.1 157.2 138.9 157.7 138.7L158.4 138.4C157.4 140.4 155.8 141.9 153.6 142.9C151.5 143.9 149.7 144.2 148.4 143.9C145.3 143.2 143.1 141.4 141.8 138.6C140.5 135.7 139.8 131.4 139.8 125.5C139.8 117.6 140 112.2 140.3 109.5C140.9 104.9 142.3 102 144.5 100.7C145.5 100.1 146.7 99.8 148 99.8C148.9 99.8 149.8 99.8 150.7 99.9C152.4 100 154 100.3 155.4 100.9C157.5 101.8 159 103.2 159.9 105C161.4 108 161.5 111.8 160.3 116.5C159.5 119.7 157.9 123 155.8 126.4ZM148.7 130.8C150.4 129.3 152 127.4 153.5 125C155.5 121.9 156.9 118.8 157.7 115.6C158.7 111.6 158.7 108.5 157.5 106.1C157 104.9 156 104 154.6 103.4C152.2 102.6 150.6 103.2 149.7 105.4C148.8 107.4 148.4 111.8 148.3 118.4C148.3 119.9 148.3 122.4 148.3 125.6C148.3 127.4 148.4 129.1 148.7 130.8Z" />
</svg>
