<svg width="267" height="254" viewBox="0 0 267 254" fill="none" xmlns="http://www.w3.org/2000/svg">
<path d="M251.8 119.7C251.4 119.7 251.1 120.1 251.1 120.5C251.2 122.5 251.3 124.6 251.3 126.6C251.3 195.7 194.8 251.8 125.6 251.3C57.8998 250.8 2.49985 195.5 1.99985 127.6C1.49985 58.4 57.5998 2 126.7 2C162.6 2 197.4 21 221.1 49C221.4 49.3 221.8 49.3 222.1 49.1C222.2 49 222.3 48.9 222.5 48.8C222.8 48.5 222.8 48.1 222.6 47.8C219.8 44.5 216.8 41.3 213.7 38.3C188.8 13.9 157.1 0 126.7 0C56.4998 0 -0.500153 57.4 -0.000153449 127.7C0.499847 196.6 56.7998 252.8 125.7 253.4C196 253.9 253.4 196.9 253.4 126.7C253.4 124.9 253.3 122.4 253.2 120.4C253.2 120 252.8 119.7 252.4 119.7C252.2 119.7 252 119.7 251.8 119.7Z" fill="url(#paint0_linear_271_28)"/>
<path d="M253 66.6999C253 66.6999 256.9 49.1999 248.6 33.7999C242.5 12.0999 240.1 3.69995 240.1 3.69995C240.1 3.69995 237.8 3.99995 236.1 9.79995C234.4 15.6 235.1 27 235.1 27C235.1 27 234.9 31.4999 231 45.5999C230.7 46.6999 230.6 47.8999 230.9 49.0999C233.8 64.1999 233.4 60.5 233.8 66.8C214.6 57.4 204.8 56.5 204.8 56.5C203.6 56.2 202.2 56 200.9 56.2C196.5 57.1 146.3 61.5 148.6 64.5C162.8 67.6 174.8 70.3 188.6 79.3C195.4 83.7 209.3 86.3 226.8 89C226.2 107.5 224.2 99.6 223.1 118C217.6 124.7 211.4 140.5 207.5 152.4C204.3 168.4 204.3 171.7 204.3 171.7C204.3 171.7 213.7 156.8 217.4 147.1C218 145.6 218.9 144.2 220 143C226.7 135.9 227.8 135.6 227.8 135.6C227.8 135.6 231 154.8 240.4 160C237 149.9 224.1 124.2 254.4 93.2C256.7 91.1 260.9 88.6 258.1 81.2C262.9 81.7 266.2 82.9 266.2 82.9C266.2 82.9 264.6 79.6 265.1 75.6C265.6 71.6 263.9 63.9999 253 66.6999Z" fill="white"/>
<path d="M253 66.6999C253 66.6999 256.9 49.1999 248.6 33.7999C242.5 12.0999 240.1 3.69995 240.1 3.69995C240.1 3.69995 237.8 3.99995 236.1 9.79995C234.4 15.6 235.1 27 235.1 27C235.1 27 234.9 31.4999 231 45.5999C230.7 46.6999 230.6 47.8999 230.9 49.0999C233.8 64.1999 233.4 60.5 233.8 66.8C214.6 57.4 204.8 56.5 204.8 56.5C203.6 56.2 202.2 56 200.9 56.2C196.5 57.1 146.3 61.5 148.6 64.5C162.8 67.6 174.8 70.3 188.6 79.3C195.4 83.7 209.3 86.3 226.8 89C226.2 107.5 224.2 99.6 223.1 118C217.6 124.7 211.4 140.5 207.5 152.4C204.3 168.4 204.3 171.7 204.3 171.7C204.3 171.7 213.7 156.8 217.4 147.1C218 145.6 218.9 144.2 220 143C226.7 135.9 227.8 135.6 227.8 135.6C227.8 135.6 231 154.8 240.4 160C237 149.9 224.1 124.2 254.4 93.2C256.7 91.1 260.9 88.6 258.1 81.2C262.9 81.7 266.2 82.9 266.2 82.9C266.2 82.9 264.6 79.6 265.1 75.6C265.6 71.6 263.9 63.9999 253 66.6999Z" fill="#086375"/>
<path d="M253 66.6999C253 66.6999 256.9 49.1999 248.6 33.7999C242.5 12.0999 240.1 3.69995 240.1 3.69995C240.1 3.69995 237.8 3.99995 236.1 9.79995C234.4 15.6 235.1 27 235.1 27C235.1 27 234.9 31.4999 231 45.5999C230.7 46.6999 230.6 47.8999 230.9 49.0999C233.8 64.1999 233.4 60.5 233.8 66.8C214.6 57.4 204.8 56.5 204.8 56.5C203.6 56.2 202.2 56 200.9 56.2C196.5 57.1 146.3 61.5 148.6 64.5C162.8 67.6 174.8 70.3 188.6 79.3C195.4 83.7 209.3 86.3 226.8 89C226.2 107.5 224.2 99.6 223.1 118C217.6 124.7 211.4 140.5 207.5 152.4C204.3 168.4 204.3 171.7 204.3 171.7C204.3 171.7 213.7 156.8 217.4 147.1C218 145.6 218.9 144.2 220 143C226.7 135.9 227.8 135.6 227.8 135.6C227.8 135.6 231 154.8 240.4 160C237 149.9 224.1 124.2 254.4 93.2C256.7 91.1 260.9 88.6 258.1 81.2C262.9 81.7 266.2 82.9 266.2 82.9C266.2 82.9 264.6 79.6 265.1 75.6C265.6 71.6 263.9 63.9999 253 66.6999Z" fill="#086375"/>
<path d="M66.0999 96.8C65.9999 96.7 65.8999 96.6 65.6999 96.5C65.4999 96.4 65.1999 96.2 64.5999 96C64.0999 95.8 63.4999 95.7 62.9999 95.6C62.4999 95.5 61.7999 95.6 61.0999 95.8C60.3999 96 59.6999 96.3 59.0999 96.8C58.4999 97.3 57.8999 98.1 57.2999 99.1C56.6999 100.2 56.0999 101.5 55.6999 103C55.2999 104.6 54.8999 106.6 54.5999 109C54.2999 111.5 54.1999 114.3 54.1999 117.4V135.3H61.2999V139.6H54.1999C54.1999 141.2 54.1999 143.7 54.1999 147C54.1999 150.4 54.1999 152.7 54.0999 153.9V184.4H43.8999V123.1V117.7C43.8999 108.3 44.6999 101.3 46.2999 96.7C47.8999 92.1 50.4999 89.2 54.1999 88.1C55.1999 87.8 56.3999 87.9 57.8999 88.3C59.2999 88.7 60.8999 89.7 62.3999 91.2C63.9999 92.7 65.1999 94.6 66.0999 96.8Z" fill="#064B59"/>
<path d="M82.7998 129.4C80.6998 132.5 78.5998 134.9 76.2998 136.7C76.7998 138.2 77.3998 139.5 78.1998 140.3C78.9998 141.2 79.7998 141.7 80.5998 141.9C81.3998 142.1 82.1998 142.1 82.8998 142.1C83.5998 142 84.1998 141.9 84.6998 141.7L85.3998 141.4C84.3998 143.4 82.7998 144.9 80.5998 145.9C78.4998 146.9 76.6998 147.2 75.3998 146.9C72.2998 146.2 70.0998 144.4 68.7998 141.6C67.4998 138.7 66.7998 134.4 66.7998 128.5C66.7998 120.6 66.9998 115.2 67.2998 112.5C67.8998 107.9 69.2998 105 71.4998 103.7C72.4998 103.1 73.6998 102.8 74.9998 102.8C75.8998 102.8 76.7998 102.8 77.6998 102.9C79.3998 103 80.9998 103.3 82.3998 103.9C84.4998 104.8 85.9998 106.2 86.8998 108C88.3998 111 88.4998 114.8 87.2998 119.5C86.3998 122.7 84.8998 126 82.7998 129.4ZM75.6998 133.8C77.3998 132.3 78.9998 130.4 80.4998 128C82.4998 124.9 83.8998 121.8 84.6998 118.6C85.6998 114.6 85.6998 111.5 84.4998 109.1C83.9998 107.9 82.9998 107 81.5998 106.4C79.1998 105.6 77.5998 106.2 76.6998 108.4C75.7998 110.4 75.3998 114.8 75.2998 121.4C75.2998 122.9 75.2998 125.4 75.2998 128.6C75.2998 130.4 75.3998 132.1 75.6998 133.8Z" fill="black"/>
<path d="M99.9998 128.5C99.9998 131 100.2 133.1 100.6 134.9C101 136.7 101.4 138.1 102 139C102.6 139.9 103.2 140.6 103.9 141.2C104.6 141.7 105.3 142 106 142C106.7 142 107.4 142 107.9 141.9C108.5 141.8 109 141.7 109.3 141.5L109.9 141.3C108.9 143.3 107.3 144.8 105.1 145.8C103 146.8 101.2 147.1 99.8998 146.8C96.7998 146.1 94.5998 144.3 93.2998 141.5C91.9998 138.6 91.2998 134.3 91.2998 128.4V121.2C91.2998 115.3 91.9998 111 93.2998 108.1C94.5998 105.2 96.7998 103.5 99.8998 102.8C100.7 102.6 101.8 102.7 103 102.9C104.2 103.2 105.5 103.8 106.8 104.7C108.1 105.6 109.2 106.8 109.9 108.2C109.8 108.1 109.7 108.1 109.5 108C109.3 107.9 109 107.8 108.6 107.7C108.2 107.6 107.7 107.5 107.3 107.4C106.9 107.3 106.3 107.4 105.7 107.5C105.1 107.6 104.5 107.8 104 108.1C103.5 108.4 103 108.9 102.4 109.6C101.9 110.3 101.4 111.1 101.1 112C100.7 113 100.4 114.2 100.2 115.8C99.9998 117.3 99.7998 119.1 99.7998 121V128.5H99.9998Z" fill="black"/>
<path d="M144.6 134C145 136.4 144.4 138.7 143 140.8C141.6 142.9 139.7 144.5 137.2 145.6C134.7 146.7 132.1 147.3 129.2 147.3C127.3 147.4 125.7 147.3 124.1 147.1C124 147.1 124 147.1 123.9 147.1C123.8 147.1 123.8 147.1 123.7 147.1H123.6C123.5 147.1 123.5 147.1 123.5 147.1C120.9 146.7 118.7 146 117 144.9C115 143.6 113.7 142.4 113.2 141.5C113 141 113 140.4 113.2 139.8C113.4 139.2 113.6 138.6 113.8 138.1L114.2 137.3C114.1 138 114.3 138.7 114.6 139.5C115 140.3 115.6 141 116.4 141.8C117.2 142.6 118.5 143.2 120.1 143.8C121.7 144.3 123.6 144.6 125.8 144.6C129.2 144.5 131.8 143.5 133.8 141.8C135.8 140.1 136.5 137.9 136 135.3C135.8 134.4 135.3 133.6 134.4 132.8C133.5 132 132.5 131.2 131.3 130.5C130.1 129.8 128.8 129.1 127.3 128.3C125.9 127.5 124.4 126.6 123 125.6C121.6 124.6 120.3 123.5 119.2 122.4C118 121.2 117.1 119.8 116.4 118.1C115.7 116.4 115.3 114.6 115.3 112.6C115.3 111.2 115.6 109.8 116.3 108.7C116.9 107.5 117.8 106.6 118.8 105.9C119.8 105.2 121 104.6 122.4 104C123.7 103.5 125.1 103.1 126.5 103C127.9 102.8 129.3 102.7 130.7 102.7C132.1 102.6 133.3 102.7 134.4 103C136.1 103.2 137.5 103.5 138.5 103.9C139.3 104.1 139.9 104.5 140.3 105.3C140.7 106 141 106.7 141 107.3L141.1 108.2C139.8 106.7 137.4 105.8 133.8 105.6H131.8C129.3 105.6 127.3 106.3 125.8 107.8C124.3 109.3 123.6 110.9 123.7 112.8C123.8 114.3 124.2 115.6 125 116.7C125.8 117.8 126.7 118.8 127.8 119.5C128.9 120.3 130.2 121 131.5 121.6C132.8 122.3 134.2 123 135.6 123.7C137 124.4 138.3 125.2 139.5 126.1C140.7 127 141.7 128.1 142.6 129.5C143.8 130.7 144.4 132.3 144.6 134Z" fill="black"/>
<path d="M167.9 121L179.6 138.2L177.9 146.1C177.8 146.8 177.4 147.1 176.7 147.3C176 147.4 175.5 147.2 175.1 146.7L162.8 128.7L156.5 138.1V147.4H148V93.4L153.9 87.9C154.4 87.4 155 87.3 155.6 87.6C156.2 87.9 156.5 88.3 156.5 89V112.8V133.3L177.1 102.7L179.3 104.2L167.9 121Z" fill="black"/>
<path d="M198.8 129.4C196.7 132.5 194.6 134.9 192.3 136.7C192.8 138.2 193.4 139.5 194.2 140.3C195 141.2 195.8 141.7 196.6 141.9C197.4 142.1 198.2 142.1 198.9 142.1C199.6 142.1 200.2 141.9 200.7 141.7L201.4 141.4C200.4 143.4 198.8 144.9 196.6 145.9C194.5 146.9 192.7 147.2 191.4 146.9C188.3 146.2 186.1 144.4 184.8 141.6C183.5 138.7 182.8 134.4 182.8 128.5C182.8 120.6 183 115.2 183.3 112.5C183.9 107.9 185.3 105 187.5 103.7C188.5 103.1 189.7 102.8 191 102.8C191.9 102.8 192.8 102.8 193.7 102.9C195.4 103 197 103.3 198.4 103.9C200.5 104.8 202 106.2 202.9 108C204.4 111 204.5 114.8 203.3 119.5C202.5 122.7 200.9 126 198.8 129.4ZM191.7 133.8C193.4 132.3 195 130.4 196.5 128C198.5 124.9 199.9 121.8 200.7 118.6C201.7 114.6 201.7 111.5 200.5 109.1C200 107.9 199 107 197.6 106.4C195.2 105.6 193.6 106.2 192.7 108.4C191.8 110.4 191.4 114.8 191.3 121.4C191.3 122.9 191.3 125.4 191.3 128.6C191.3 130.4 191.4 132.1 191.7 133.8Z" fill="black"/>
<defs>
<linearGradient id="paint0_linear_271_28" x1="8.44685" y1="172.049" x2="239.037" y2="83.534" gradientUnits="userSpaceOnUse">
<stop offset="0.6516"/>
<stop offset="0.701" stop-color="#000506"/>
<stop offset="0.7668" stop-color="#021317"/>
<stop offset="0.8418" stop-color="#032B33"/>
<stop offset="0.9233" stop-color="#064B59"/>
</linearGradient>
</defs>
</svg>
