<svg viewBox="0 0 489 476" fill="none" xmlns="http://www.w3.org/2000/svg">
<path d="M239.416 0.0551758C247.394 4.48218 274.538 22.4862 274.538 54.9782C274.538 83.7232 228.168 169.538 246.108 191.835L361.217 48.3672C361.217 48.3672 389.807 83.1902 372.655 112.644C354.832 143.253 310.774 179.168 293.124 205.853C282.213 222.348 287.518 231.191 287.518 231.191L427.013 154.791C427.013 154.791 438.215 188.028 411.666 211.932C383.648 237.161 317.675 247.181 317.675 273.474H413.484C413.484 273.474 403.692 302.507 385.179 306.592C368.85 310.197 333.909 300.659 317.442 315.492C300.058 331.152 280.504 382.647 222.163 382.647C182.911 382.647 152.492 354.358 133.597 317.184C111.763 274.228 87.297 253.552 62.071 248.287C62.071 248.287 75.785 215.818 111.993 215.818C161.767 215.818 183.058 297.374 220.616 297.374C231.441 297.374 242.932 291.743 242.932 275.792C242.932 258.479 217.974 244.136 211.027 239.3C194.484 227.782 181.294 209.482 189.794 178.768L239.416 0.0551758Z" fill="white"/>
<path d="M34.5579 459.734V437.887H10.4039V459.734H0.669922V408.83H10.4039V430.316H34.5579V408.83H44.2919V459.734H34.5579Z" fill="white"/>
<path d="M80.6309 459.734V455.48C79.9569 455.96 79.1519 456.501 78.2149 457.102C77.2769 457.704 76.2319 458.281 75.0779 458.832C73.9249 459.386 72.6859 459.842 71.3649 460.202C70.0419 460.562 68.6609 460.743 67.2189 460.743C64.2379 460.743 61.9069 460.31 60.2249 459.445C58.5419 458.58 57.2689 457.438 56.4039 456.02C55.5389 454.602 54.9979 452.956 54.7819 451.081C54.5659 449.206 54.4569 447.26 54.4569 445.241V420.365H63.9019V444.159C63.9019 445.601 63.9849 446.84 64.1539 447.873C64.3219 448.907 64.6339 449.76 65.0919 450.433C65.5479 451.106 66.1849 451.611 67.0029 451.947C67.8199 452.284 68.9009 452.452 70.2479 452.452C71.1609 452.452 72.1339 452.32 73.1679 452.056C74.2009 451.792 75.1869 451.479 76.1239 451.118C77.0619 450.758 77.9269 450.373 78.7199 449.965C79.5129 449.557 80.1499 449.233 80.6309 448.991V420.366H90.0039V459.734H80.6309Z" fill="white"/>
<path d="M150.353 459.662V435.724C150.353 433.033 149.956 430.978 149.163 429.559C148.37 428.142 146.699 427.432 144.152 427.432C143.334 427.432 142.482 427.553 141.592 427.792C140.702 428.033 139.837 428.321 138.996 428.657C138.155 428.994 137.362 429.354 136.617 429.739C135.871 430.124 135.211 430.484 134.635 430.82C134.731 431.445 134.79 432.071 134.815 432.695C134.838 433.32 134.851 433.945 134.851 434.569V459.661H125.406V435.723C125.406 432.887 124.999 430.82 124.186 429.522C123.373 428.224 121.722 427.576 119.234 427.576C118.372 427.576 117.51 427.696 116.65 427.936C115.789 428.177 114.94 428.465 114.103 428.801C113.265 429.138 112.487 429.486 111.77 429.846C111.053 430.207 110.455 430.532 109.977 430.82V459.661H100.388V420.32H109.977L109.905 424.43C110.482 424.001 111.216 423.501 112.107 422.929C112.997 422.357 113.984 421.797 115.068 421.249C116.151 420.701 117.33 420.236 118.606 419.855C119.881 419.474 121.217 419.283 122.613 419.283C125.597 419.283 127.98 419.812 129.761 420.869C131.542 421.928 132.843 423.346 133.66 425.123C134.431 424.547 135.309 423.91 136.296 423.213C137.283 422.517 138.353 421.879 139.509 421.302C140.664 420.726 141.915 420.245 143.263 419.861C144.61 419.476 146.007 419.284 147.451 419.284C150.531 419.284 152.914 419.773 154.599 420.75C156.283 421.727 157.522 422.966 158.317 424.467C159.111 425.967 159.581 427.63 159.725 429.454C159.869 431.279 159.942 433.009 159.942 434.642V459.662H150.353Z" fill="white"/>
<path d="M203.275 460.095C202.121 460.143 200.907 460.143 199.634 460.095C198.36 460.047 197.17 459.866 196.065 459.554C194.959 459.242 193.985 458.774 193.145 458.149C192.304 457.525 191.787 456.683 191.595 455.626C190.97 456.059 190.262 456.552 189.468 457.104C188.675 457.658 187.774 458.174 186.764 458.655C185.754 459.135 184.637 459.532 183.411 459.844C182.185 460.156 180.851 460.313 179.41 460.313C175.42 460.313 172.331 459.364 170.145 457.464C167.957 455.566 166.864 452.694 166.864 448.848C166.864 446.397 167.369 444.414 168.378 442.9C169.388 441.386 170.673 440.209 172.235 439.367C173.797 438.527 175.527 437.95 177.426 437.637C179.324 437.325 181.187 437.168 183.014 437.168H186.475C187.388 437.168 188.265 437.157 189.107 437.133C189.947 437.109 190.537 437.097 190.874 437.097V432.947C190.874 431.802 190.705 430.872 190.369 430.156C190.032 429.441 189.527 428.892 188.855 428.51C188.181 428.129 187.329 427.877 186.295 427.758C185.261 427.639 184.024 427.579 182.582 427.579C180.659 427.579 178.712 427.784 176.742 428.191C174.771 428.6 173.065 428.997 171.623 429.381L169.748 422.268C171.478 421.589 173.569 420.946 176.021 420.34C178.472 419.734 181.212 419.431 184.24 419.431C186.306 419.431 188.289 419.551 190.189 419.791C192.087 420.032 193.769 420.548 195.236 421.341C196.702 422.134 197.879 423.277 198.769 424.766C199.658 426.257 200.103 428.276 200.103 430.823V450.291C200.103 451.349 200.438 452.021 201.112 452.31C201.785 452.599 202.65 452.768 203.708 452.815L203.275 460.095ZM190.874 443.007L183.592 443.367C181.957 443.464 180.647 443.644 179.662 443.908C178.676 444.173 177.919 444.52 177.391 444.953C176.862 445.386 176.514 445.891 176.346 446.468C176.177 447.044 176.094 447.647 176.094 448.271C176.094 449.906 176.514 451.072 177.356 451.768C178.196 452.465 179.362 452.813 180.853 452.813C181.622 452.813 182.499 452.694 183.485 452.453C184.47 452.213 185.443 451.925 186.405 451.588C187.366 451.252 188.255 450.928 189.073 450.614C189.89 450.302 190.49 450.098 190.876 450.002V443.007H190.874Z" fill="white"/>
<path d="M237.955 459.662V435.724C237.955 434.282 237.87 433.044 237.704 432.01C237.536 430.978 237.213 430.124 236.735 429.45C236.256 428.778 235.61 428.273 234.796 427.936C233.983 427.6 232.905 427.431 231.566 427.431C230.561 427.431 229.555 427.564 228.55 427.827C227.545 428.092 226.6 428.404 225.714 428.765C224.829 429.125 224.015 429.498 223.274 429.882C222.531 430.268 221.921 430.579 221.443 430.82V459.661H211.854V420.32H221.443L221.371 424.43C222.043 423.954 222.824 423.418 223.714 422.823C224.603 422.226 225.6 421.667 226.706 421.142C227.811 420.619 229.024 420.178 230.347 419.82C231.668 419.463 233.075 419.284 234.565 419.284C237.593 419.284 239.961 419.701 241.667 420.535C243.372 421.368 244.647 422.501 245.489 423.931C246.329 425.361 246.858 426.998 247.075 428.845C247.292 430.692 247.399 432.623 247.399 434.642V459.662H237.955Z" fill="white"/>
<path d="M315.319 460.6C311.761 460.408 308.625 459.435 305.91 457.68C303.194 455.926 300.538 453.487 297.942 450.362L290.372 441.277C289.843 441.325 289.302 441.361 288.75 441.385C288.196 441.409 287.632 441.421 287.056 441.421H282.008V459.734H272.202V408.757H290.805C293.545 408.757 296.033 409.082 298.268 409.731C300.502 410.38 302.437 411.378 304.072 412.723C305.706 414.07 306.968 415.751 307.857 417.771C308.747 419.79 309.191 422.194 309.191 424.981C309.191 428.009 308.458 430.738 306.992 433.165C305.525 435.593 303.279 437.527 300.251 438.969L306.523 446.18C308.061 447.958 309.744 449.401 311.571 450.505C313.397 451.611 315.343 452.429 317.411 452.957L315.319 460.6ZM299.097 425.27C299.097 422.146 298.351 419.899 296.862 418.529C295.372 417.159 292.824 416.474 289.219 416.474H282.008V434.283H287.488C291.237 434.283 294.109 433.551 296.104 432.084C298.099 430.617 299.097 428.347 299.097 425.27Z" fill="white"/>
<path d="M327.071 415.031L320.149 408.109L327.071 401.259L333.993 408.109L327.071 415.031ZM322.457 459.734V420.366H331.902V459.734H322.457Z" fill="white"/>
<path d="M375.451 460.96C375.451 463.7 374.886 466.031 373.757 467.954C372.627 469.876 371.186 471.426 369.431 472.604C367.676 473.782 365.705 474.634 363.519 475.164C361.331 475.692 359.205 475.957 357.138 475.957C354.11 475.957 351.297 475.727 348.702 475.267C346.106 474.805 343.967 474.332 342.284 473.848L343.726 466.296C344.639 466.487 345.624 466.68 346.682 466.872C347.739 467.064 348.809 467.233 349.891 467.377C350.972 467.522 352.005 467.63 352.992 467.701C353.976 467.773 354.83 467.809 355.552 467.809C357.138 467.809 358.568 467.726 359.842 467.559C361.114 467.392 362.221 467.023 363.158 466.452C364.096 465.88 364.816 465.082 365.321 464.059C365.826 463.034 366.078 461.664 366.078 459.95C366.126 459.902 366.15 459.781 366.15 459.59C366.15 459.399 366.15 459.17 366.15 458.905C366.15 458.641 366.137 458.4 366.114 458.184C366.09 457.967 366.078 457.835 366.078 457.788C365.116 458.509 363.974 459.121 362.653 459.626C361.331 460.131 359.949 460.383 358.507 460.383C356.247 460.383 353.988 460.167 351.729 459.735C349.47 459.303 347.427 458.39 345.601 456.995C343.774 455.601 342.284 453.583 341.13 450.938C339.977 448.295 339.4 444.738 339.4 440.267C339.4 436.903 339.941 433.947 341.022 431.399C342.104 428.851 343.582 426.712 345.457 424.982C347.332 423.252 349.506 421.942 351.982 421.052C354.457 420.163 357.113 419.718 359.949 419.718C362.208 419.718 364.588 419.851 367.088 420.114C369.587 420.379 372.375 420.752 375.451 421.231V460.96ZM366.006 428.01C365.189 427.914 364.312 427.819 363.374 427.721C362.437 427.625 361.271 427.577 359.878 427.577C357.906 427.577 356.212 427.901 354.794 428.55C353.376 429.199 352.223 430.089 351.333 431.218C350.443 432.348 349.795 433.695 349.387 435.256C348.978 436.818 348.774 438.513 348.774 440.339C348.774 442.694 349.014 444.678 349.496 446.287C349.975 447.898 350.661 449.196 351.551 450.181C352.44 451.167 353.522 451.875 354.795 452.308C356.068 452.741 357.475 452.957 359.014 452.957C360.408 452.957 361.693 452.74 362.871 452.308C364.048 451.875 365.094 451.443 366.007 451.01L366.006 428.01Z" fill="white"/>
<path d="M410.925 459.662V435.724C410.925 434.282 410.841 433.044 410.674 432.01C410.506 430.978 410.183 430.124 409.705 429.45C409.226 428.778 408.579 428.273 407.766 427.936C406.954 427.6 405.876 427.431 404.537 427.431C403.532 427.431 402.526 427.564 401.521 427.827C400.516 428.092 399.571 428.404 398.685 428.765C397.799 429.126 396.986 429.498 396.245 429.882C395.503 430.268 394.892 430.579 394.415 430.82V459.661H384.825V405.323H394.415L394.343 424.43C395.016 423.954 395.796 423.418 396.686 422.823C397.576 422.226 398.573 421.667 399.678 421.142C400.783 420.619 401.997 420.178 403.32 419.82C404.641 419.463 406.048 419.284 407.538 419.284C410.566 419.284 412.934 419.701 414.641 420.535C416.346 421.368 417.62 422.501 418.462 423.931C419.302 425.361 419.832 426.998 420.048 428.845C420.265 430.692 420.372 432.623 420.372 434.642V459.662H410.925Z" fill="white"/>
<path d="M451.337 460.095C449.727 460.383 448.225 460.528 446.831 460.528C444.956 460.528 443.105 460.467 441.279 460.348C439.452 460.227 437.829 459.794 436.412 459.05C434.994 458.305 433.84 457.079 432.951 455.372C432.061 453.667 431.617 451.226 431.617 448.054V427.577H425.849V420.366H431.617V412.291H441.062V420.366H453.248V427.577H441.062V447.981C441.062 448.991 441.146 449.796 441.315 450.397C441.483 450.999 441.784 451.455 442.216 451.767C442.648 452.079 443.225 452.284 443.946 452.379C444.667 452.476 445.579 452.524 446.685 452.524C447.358 452.524 448.138 452.488 449.029 452.416C449.918 452.344 450.747 452.261 451.516 452.164C452.381 452.019 453.293 451.875 454.256 451.731L455.337 459.229C454.281 459.519 452.947 459.807 451.337 460.095Z" fill="white"/>
<path d="M488.506 448.198C488.506 450.649 487.965 452.668 486.883 454.255C485.802 455.841 484.444 457.092 482.81 458.004C481.175 458.918 479.409 459.554 477.51 459.915C475.611 460.275 473.844 460.455 472.21 460.455C469.422 460.455 466.839 460.311 464.459 460.022C462.08 459.734 460.169 459.35 458.728 458.869L459.809 451.442C461.829 451.828 463.858 452.128 465.902 452.343C467.945 452.56 469.663 452.667 471.057 452.667C474.133 452.667 476.248 452.296 477.402 451.55C478.556 450.805 479.132 449.88 479.132 448.774C479.132 447.717 478.639 446.877 477.654 446.251C476.668 445.627 475.442 445.062 473.976 444.557C472.509 444.052 470.923 443.512 469.217 442.935C467.511 442.358 465.924 441.601 464.458 440.664C462.991 439.726 461.766 438.526 460.781 437.06C459.796 435.594 459.302 433.683 459.302 431.328C459.302 429.309 459.71 427.567 460.529 426.1C461.345 424.634 462.451 423.409 463.845 422.423C465.239 421.438 466.861 420.704 468.712 420.224C470.562 419.744 472.521 419.502 474.588 419.502C476.942 419.502 479.13 419.683 481.15 420.043C483.169 420.403 484.922 420.849 486.413 421.377L484.755 428.443C483.265 428.107 481.727 427.794 480.141 427.505C478.555 427.216 476.703 427.072 474.589 427.072C472.329 427.072 470.791 427.432 469.975 428.153C469.157 428.875 468.749 429.692 468.749 430.605C468.749 431.663 469.241 432.541 470.227 433.237C471.211 433.934 472.426 434.57 473.869 435.147C475.31 435.724 476.897 436.326 478.628 436.95C480.358 437.575 481.944 438.356 483.386 439.294C484.828 440.231 486.042 441.409 487.028 442.826C488.012 444.245 488.506 446.035 488.506 448.198Z" fill="white"/>
</svg>
