<?xml version="1.0" encoding="utf-8"?>
<!-- Generator: Adobe Illustrator 16.2.1, SVG Export Plug-In . SVG Version: 6.00 Build 0)  -->
<!DOCTYPE svg PUBLIC "-//W3C//DTD SVG 1.1//EN" "http://www.w3.org/Graphics/SVG/1.1/DTD/svg11.dtd">
<svg version="1.1" id="Ebene_1" xmlns="http://www.w3.org/2000/svg" xmlns:xlink="http://www.w3.org/1999/xlink" x="0px" y="0px"
	 width="47px" height="49px" viewBox="0 0 47 49" enable-background="new 0 0 47 49" xml:space="preserve">
<g>
	<polygon fill="#F8D100" points="35,49 39,49 39,33 35,33 	"/>
	<polygon fill="#E3001B" points="35,33 39,33 39,17 35,17 	"/>
	<polygon points="35,17 39,17 39,1 35,1 	"/>
	<path d="M16.081,8.103c0.103,0.007,0.202,0.013,0.306,0.013c1.826,0,3.638-1.181,3.638-2.696c0-0.807-0.363-1.371-0.811-1.997
		c-0.264,0.044-0.504,0.068-0.693,0.068c-0.827,0-1.276-0.443-1.309-0.879c0-0.393,0.319-0.689,0.814-0.689
		c0.769,0,2.168,0.719,3.58,0.719c-0.139,0.105-0.37,0.216-0.648,0.32c0.828,0.745,1.38,1.742,1.591,2.81l2.163,3.461
		c0.363,0.578,1.131,1.715,2.288,2.602c-1.399,0-2.327,0.032-3.51-1.838l-1.107-1.773c-0.082,0.229-0.184,0.453-0.302,0.671
		l2.204,3.53c0.368,0.584,1.126,1.711,2.289,2.603c-1.399,0-2.325,0.033-3.509-1.838l-1.898-3.039
		c-0.142,0.15-0.292,0.299-0.45,0.441l2.679,4.286c0.369,0.587,1.125,1.708,2.289,2.601c-1.4,0-2.327,0.034-3.511-1.839
		l-2.609-4.177c-0.174,0.109-0.349,0.213-0.53,0.313l3.185,5.099c0.368,0.586,1.124,1.708,2.289,2.601
		c-1.399,0-2.328,0.034-3.509-1.839l-3.281-5.25c-0.194,0.075-0.392,0.146-0.592,0.209l3.708,5.936
		c0.361,0.575,1.136,1.716,2.287,2.6c-1.397,0-2.326,0.032-3.508-1.839l-3.951-6.325l-0.122,0.022
		c-0.106,0.342-0.182,0.661-0.182,0.98c0,1.986,1.304,3.741,2.87,5.096c-0.101,0.042-0.275,0.06-0.436,0.06
		c-0.322,0-0.532-0.02-0.678-0.044c0.364,0.824,1.142,1.888,1.535,2.439c0.513-0.091,1.259-0.164,1.746-0.164
		c0.511,0,0.568,0.299,0.568,0.566c0,0.462-0.217,0.834-0.468,1.041c-0.095-0.239-0.286-0.556-1.229-0.556l-0.096,0.004
		c0.278,0.308,1.14,1.006,1.14,1.569c0,0.371-0.408,0.93-0.947,0.93c0.034-0.12,0.027-0.231,0.027-0.313
		c0-0.455-0.402-0.987-0.743-1.359c0.009,0.111,0.004,0.1,0.004,0.228c0,1.077-0.096,1.571-0.78,1.571
		c-0.335,0-0.566-0.184-0.646-0.238c0.444-0.41,0.468-0.731,0.468-1.334l-0.005-0.524c-0.001-0.137,0.001-0.319,0.022-0.452
		c-0.245-0.035-0.342-0.034-0.53-0.034c0,0-0.973-0.076-1.206,0.429c-0.263-0.24-0.644-0.582-0.644-0.96
		c0-0.249,0.117-0.529,0.615-0.529c0.189,0,0.786,0.117,1.284,0.117c-0.133-0.299-0.73-1.17-1.245-1.804
		c-0.079,0.245-0.201,0.512-0.473,0.729c-0.037-0.408-0.275-1.693-0.911-2.444c-0.074,0.507-0.175,1.029-0.175,2.127
		c0,2.675,0.644,4.651,2.009,5.029c-0.178,0.311-0.552,0.587-0.943,0.587c-0.5,0-0.771-0.565-1.049-1.098
		c-0.145,0.394-0.543,1.357-0.944,1.357c-0.4,0-0.799-0.963-0.942-1.357c-0.279,0.533-0.55,1.098-1.051,1.098
		c-0.389,0-0.766-0.276-0.941-0.587c1.364-0.378,2.008-2.354,2.008-5.029c0-1.098-0.101-1.62-0.174-2.127
		c-0.636,0.751-0.875,2.036-0.913,2.444c-0.271-0.216-0.393-0.483-0.472-0.729c-0.516,0.633-1.111,1.505-1.246,1.804
		c0.5,0,1.095-0.117,1.285-0.117c0.5,0,0.618,0.281,0.618,0.529c0,0.379-0.384,0.72-0.646,0.96
		c-0.235-0.505-1.205-0.429-1.205-0.429c-0.19,0-0.287-0.001-0.532,0.034c0.021,0.133,0.025,0.314,0.022,0.452l-0.004,0.524
		c0,0.603,0.023,0.924,0.467,1.334c-0.079,0.055-0.311,0.238-0.646,0.238c-0.683,0-0.781-0.495-0.781-1.571
		c0-0.128-0.003-0.117,0.006-0.228c-0.341,0.373-0.744,0.904-0.744,1.359c0,0.082-0.006,0.193,0.026,0.313
		c-0.536,0-0.945-0.559-0.945-0.93c0-0.563,0.863-1.261,1.139-1.569l-0.095-0.004c-0.943,0-1.135,0.317-1.229,0.556
		c-0.252-0.206-0.468-0.578-0.468-1.041c0-0.267,0.057-0.566,0.567-0.566c0.489,0,1.234,0.073,1.746,0.164
		c0.392-0.552,1.171-1.615,1.535-2.439c-0.146,0.024-0.355,0.044-0.677,0.044c-0.162,0-0.338-0.018-0.436-0.06
		c1.564-1.355,2.867-3.11,2.867-5.096c0-0.319-0.073-0.638-0.182-0.98l-0.119-0.022l-3.951,6.325
		c-1.183,1.872-2.111,1.839-3.509,1.839c1.152-0.884,1.925-2.025,2.286-2.6l3.709-5.936c-0.2-0.063-0.396-0.134-0.592-0.209
		L6,17.635c-1.183,1.873-2.113,1.839-3.509,1.839c1.165-0.893,1.919-2.015,2.287-2.601l3.188-5.099
		c-0.183-0.101-0.358-0.205-0.531-0.313l-2.61,4.177c-1.183,1.873-2.11,1.839-3.509,1.839c1.164-0.893,1.92-2.014,2.288-2.601
		l2.678-4.286C6.124,10.449,5.974,10.3,5.833,10.15l-1.897,3.039c-1.184,1.872-2.111,1.838-3.51,1.838
		c1.162-0.892,1.922-2.019,2.289-2.603l2.204-3.53C4.801,8.676,4.7,8.452,4.618,8.223L3.509,9.997
		C2.326,11.867,1.397,11.835,0,11.835c1.157-0.887,1.924-2.023,2.288-2.602L4.45,5.772c0.21-1.067,0.763-2.064,1.59-2.81
		c-0.277-0.104-0.508-0.215-0.648-0.32c1.412,0,2.812-0.718,3.58-0.718c0.497,0,0.813,0.295,0.813,0.688
		C9.754,3.048,9.304,3.491,8.477,3.491c-0.187,0-0.428-0.024-0.691-0.068c-0.447,0.625-0.81,1.189-0.81,1.997
		c0,1.515,1.81,2.696,3.639,2.696c0.102,0,0.201-0.005,0.304-0.013c0.362-1.227,1.133-2.031,1.748-2.818
		c-0.738-0.269-1.561-0.969-1.561-1.287c0.094-0.055,1.508,0.39,1.655,0.43c0.03,0.008,0.06,0.009,0.095,0
		c0.171-0.052,0.315-0.305,0.315-0.33c-0.151-0.024-1.038-0.14-1.645-0.361c-0.46-0.169-0.694-0.474-0.694-0.59
		c0.147-0.024,0.709,0.271,1.533,0.271c0.304,0,0.364-0.013,0.666-0.05c-0.213-0.507-0.612-0.935-1.062-0.935
		c-0.18,0-0.576,0.114-0.906,0.279c-0.23-0.357-0.433-0.828-0.433-1.085c0-0.303,0.299-0.659,1.146-0.659
		c0.237,0,0.458,0.021,0.664,0.059c0.166,0.031,0.304,0.068,0.453,0.127c-0.012-0.021-0.019-0.066-0.019-0.107
		c0-0.117,0.106-0.24,0.504-0.24c0.696,0,1.411,0.229,2.286,0.229c0.227,0,0.38-0.008,0.512-0.063
		c-0.057,0.175-0.303,0.432-0.528,0.641c0.139,0.189,0.502,0.648,0.502,1.39c0,1.192-0.786,2.175-0.786,3.379
		C15.364,7.096,15.915,7.727,16.081,8.103L16.081,8.103z M13.98,2.423c0.648,0.126,1.091-0.703,0.474-0.851
		c0.085,0.274-0.329,0.467-0.329,0.467s-0.159-0.367,0.047-0.576c-0.378-0.184-0.473,0.041-0.481,0.273
		C13.84,1.935,13.936,2.166,13.98,2.423L13.98,2.423z M13.434,3.701c0.12-0.276,0.282-0.604,0.282-0.966c0-1-0.83-1.477-1.94-1.477
		c-0.57,0-0.858,0.184-0.858,0.369s0.188,0.592,0.261,0.717c0.205-0.091,0.576-0.199,0.79-0.199
		C12.732,2.145,13.301,2.999,13.434,3.701L13.434,3.701z M6.343,5.477c0-0.97,0.632-1.703,0.989-2.141l-0.24-0.055
		c-0.34,0.293-1.296,1.336-1.296,2.653c0,2.307,2.32,4.448,4.96,4.465c-0.029-0.251-0.045-0.517-0.045-0.801
		c0-0.178,0.007-0.353,0.023-0.516C8.401,9.082,6.343,7.405,6.343,5.477L6.343,5.477z M10.935,19.425
		c-0.076-0.28-0.15-0.485-0.443-0.485c-0.151,0-0.222,0.027-0.31,0.059c-0.318,0.877-1.534,2.524-1.726,2.778
		c-0.524-0.087-1.259-0.178-1.853-0.178c-0.14,0-0.332-0.013-0.332,0.323c0,0.192,0.085,0.53,0.191,0.644
		c0.261-0.309,0.713-0.402,1.271-0.402c0.217,0,0.479,0.076,0.578,0.099c-0.709,0.72-1.379,1.317-1.379,1.717
		c0,0.222,0.231,0.517,0.425,0.616c0-0.588,0.609-1.401,1.206-1.856c0,0.08,0.028,0.39,0.028,0.725c0,1.11,0.11,1.329,0.536,1.329
		c0.079,0,0.21-0.028,0.261-0.058c-0.23-0.264-0.327-0.614-0.327-1.272c0-0.189,0.008-0.369,0.008-0.524
		c0-0.292-0.035-0.5-0.057-0.66c0.162-0.022,0.534-0.075,0.807-0.075c0.58,0,0.941,0.055,1.205,0.317
		c0.188-0.143,0.397-0.414,0.397-0.6c0-0.267-0.179-0.286-0.37-0.286c-0.295,0-0.536,0.117-1.652,0.117
		C9.62,21.124,10.264,20.238,10.935,19.425L10.935,19.425z M17.599,21.753c-1.117,0-1.358-0.117-1.653-0.117
		c-0.188,0-0.368,0.019-0.368,0.286c0,0.186,0.208,0.457,0.396,0.6c0.262-0.262,0.623-0.317,1.206-0.317
		c0.271,0,0.643,0.053,0.807,0.075c-0.023,0.16-0.055,0.367-0.055,0.66c0,0.155,0.005,0.334,0.005,0.524
		c0,0.658-0.097,1.008-0.327,1.272c0.05,0.03,0.183,0.058,0.261,0.058c0.428,0,0.537-0.219,0.537-1.329
		c0-0.335,0.028-0.645,0.028-0.725c0.596,0.456,1.206,1.268,1.206,1.856c0.195-0.099,0.424-0.394,0.424-0.616
		c0-0.4-0.669-0.997-1.379-1.717c0.098-0.023,0.361-0.099,0.579-0.099c0.557,0,1.009,0.093,1.271,0.402
		c0.103-0.114,0.19-0.452,0.19-0.644c0-0.335-0.192-0.323-0.332-0.323c-0.593,0-1.327,0.091-1.853,0.178
		c-0.191-0.254-1.407-1.901-1.723-2.778c-0.091-0.032-0.162-0.059-0.311-0.059c-0.292,0-0.369,0.205-0.445,0.485
		C16.735,20.238,17.38,21.124,17.599,21.753L17.599,21.753z M21.205,5.934c0-1.316-0.958-2.359-1.295-2.653l-0.243,0.055
		c0.358,0.438,0.991,1.171,0.991,2.141c0,1.91-2.02,3.571-4.324,3.603c0.018,0.197,0.016,0.369,0.016,0.518
		c0,0.273-0.017,0.541-0.049,0.8C18.915,10.35,21.205,8.224,21.205,5.934L21.205,5.934z"/>
</g>
</svg>
