<svg viewBox="0 0 87 87" xmlns="http://www.w3.org/2000/svg">
<path d="M43.5 81.5625C33.4052 81.5625 23.7239 77.5524 16.5857 70.4143C9.44764 63.2761 5.4375 53.5948 5.4375 43.5C5.4375 33.4052 9.44764 23.7239 16.5857 16.5857C23.7239 9.44764 33.4052 5.4375 43.5 5.4375C53.5948 5.4375 63.2761 9.44764 70.4143 16.5857C77.5524 23.7239 81.5625 33.4052 81.5625 43.5C81.5625 53.5948 77.5524 63.2761 70.4143 70.4143C63.2761 77.5524 53.5948 81.5625 43.5 81.5625ZM43.5 87C55.0369 87 66.1013 82.417 74.2591 74.2591C82.417 66.1013 87 55.0369 87 43.5C87 31.9631 82.417 20.8987 74.2591 12.7409C66.1013 4.58302 55.0369 0 43.5 0C31.9631 0 20.8987 4.58302 12.7409 12.7409C4.58302 20.8987 0 31.9631 0 43.5C0 55.0369 4.58302 66.1013 12.7409 74.2591C20.8987 82.417 31.9631 87 43.5 87Z" />
<path d="M25.2626 25.2626C25.5151 25.0094 25.8152 24.8085 26.1455 24.6715C26.4758 24.5344 26.8299 24.4639 27.1875 24.4639C27.5451 24.4639 27.8992 24.5344 28.2295 24.6715C28.5598 24.8085 28.8598 25.0094 29.1124 25.2626L43.5 39.6557L57.8876 25.2626C58.1404 25.0098 58.4405 24.8093 58.7707 24.6725C59.101 24.5357 59.455 24.4653 59.8125 24.4653C60.17 24.4653 60.5239 24.5357 60.8542 24.6725C61.1845 24.8093 61.4846 25.0098 61.7374 25.2626C61.9901 25.5154 62.1906 25.8155 62.3274 26.1457C62.4642 26.476 62.5347 26.83 62.5347 27.1875C62.5347 27.545 62.4642 27.8989 62.3274 28.2292C62.1906 28.5595 61.9901 28.8596 61.7374 29.1124L47.3443 43.5L61.7374 57.8876C61.9901 58.1404 62.1906 58.4405 62.3274 58.7707C62.4642 59.101 62.5347 59.455 62.5347 59.8125C62.5347 60.17 62.4642 60.5239 62.3274 60.8542C62.1906 61.1845 61.9901 61.4846 61.7374 61.7374C61.4846 61.9901 61.1845 62.1906 60.8542 62.3274C60.5239 62.4642 60.17 62.5347 59.8125 62.5347C59.455 62.5347 59.101 62.4642 58.7707 62.3274C58.4405 62.1906 58.1404 61.9901 57.8876 61.7374L43.5 47.3443L29.1124 61.7374C28.8596 61.9901 28.5595 62.1906 28.2292 62.3274C27.8989 62.4642 27.545 62.5347 27.1875 62.5347C26.83 62.5347 26.476 62.4642 26.1457 62.3274C25.8155 62.1906 25.5154 61.9901 25.2626 61.7374C25.0098 61.4846 24.8093 61.1845 24.6725 60.8542C24.5357 60.5239 24.4653 60.17 24.4653 59.8125C24.4653 59.455 24.5357 59.101 24.6725 58.7707C24.8093 58.4405 25.0098 58.1404 25.2626 57.8876L39.6557 43.5L25.2626 29.1124C25.0094 28.8598 24.8085 28.5598 24.6715 28.2295C24.5344 27.8992 24.4639 27.5451 24.4639 27.1875C24.4639 26.8299 24.5344 26.4758 24.6715 26.1455C24.8085 25.8152 25.0094 25.5151 25.2626 25.2626Z" />
</svg>
