<svg viewBox="0 0 38 29" fill="black" xmlns="http://www.w3.org/2000/svg">
<path d="M37.4062 2.06485C37.6694 2.576 37.7865 3.14985 37.7446 3.72326C37.7027 4.29666 37.5034 4.8474 37.1687 5.31485L21.5437 27.1899C21.2547 27.595 20.873 27.9252 20.4306 28.153C19.9881 28.3808 19.4976 28.4997 19 28.4997C18.5023 28.4997 18.0119 28.3808 17.5694 28.153C17.127 27.9252 16.7453 27.595 16.4562 27.1899L0.831251 5.31485C0.496809 4.84756 0.297685 4.2971 0.25578 3.72398C0.213876 3.15087 0.330813 2.5773 0.593726 2.06633C0.85664 1.55536 1.25535 1.12678 1.74603 0.827698C2.23671 0.52862 2.80035 0.370629 3.375 0.371095H34.625C35.1995 0.370494 35.763 0.528265 36.2536 0.827072C36.7443 1.12588 37.1431 1.55416 37.4062 2.06485V2.06485Z" />
</svg>
