<svg viewBox="0 0 44 35" fill="black" xmlns="http://www.w3.org/2000/svg">
<path d="M37.4 0H6.6C4.84957 0 3.17084 0.691404 1.9331 1.92211C0.695355 3.15282 0 4.82202 0 6.5625V28.4375C0 30.178 0.695355 31.8472 1.9331 33.0779C3.17084 34.3086 4.84957 35 6.6 35H37.4C39.1504 35 40.8292 34.3086 42.0669 33.0779C43.3046 31.8472 44 30.178 44 28.4375V6.5625C44 4.82202 43.3046 3.15282 42.0669 1.92211C40.8292 0.691404 39.1504 0 37.4 0ZM37.4 4.375L23.1 14.1531C22.7656 14.3451 22.3862 14.4462 22 14.4462C21.6138 14.4462 21.2344 14.3451 20.9 14.1531L6.6 4.375H37.4Z" />
</svg>
