<svg viewBox="0 0 388 176" fill="black" xmlns="http://www.w3.org/2000/svg">
<path d="M186.75 101.83H195.19V104.73H189.94V110.38H194.06V113.28H189.94V122.13H186.75V101.83Z" />
<path d="M198.17 121.08C197.285 120.031 196.84 118.68 196.93 117.31V106.64C196.841 105.27 197.286 103.92 198.17 102.87C199.173 102.012 200.45 101.541 201.77 101.541C203.09 101.541 204.367 102.012 205.37 102.87C206.254 103.92 206.698 105.27 206.61 106.64V117.31C206.699 118.68 206.255 120.031 205.37 121.08C204.369 121.944 203.092 122.419 201.77 122.419C200.448 122.419 199.17 121.944 198.17 121.08ZM203.42 117.51V106.44C203.42 105.1 202.87 104.44 201.77 104.44C200.67 104.44 200.12 105.1 200.12 106.44V117.51C200.12 118.843 200.67 119.51 201.77 119.51C202.87 119.51 203.42 118.843 203.42 117.51Z" />
<path d="M210.18 121.1C209.305 120.038 208.869 118.683 208.96 117.31V106.64C208.871 105.271 209.307 103.919 210.18 102.86C211.161 102.008 212.416 101.539 213.715 101.539C215.014 101.539 216.269 102.008 217.25 102.86C218.127 103.916 218.564 105.27 218.47 106.64V108.38H215.47V106.44C215.47 105.1 214.92 104.44 213.81 104.44C212.7 104.44 212.16 105.1 212.16 106.44V117.54C212.16 118.873 212.71 119.54 213.81 119.54C214.92 119.54 215.47 118.88 215.47 117.54V113.54H213.87V110.64H218.48V117.28C218.576 118.653 218.139 120.011 217.26 121.07C216.279 121.922 215.024 122.391 213.725 122.391C212.426 122.391 211.171 121.922 210.19 121.07L210.18 121.1Z" />
<path d="M220.13 101.83H223.34L225.43 117.57H225.49L227.58 101.83H230.51L227.43 122.13H223.2L220.13 101.83Z" />
<path d="M234.13 101.83H238.45L241.76 122.13H238.57L237.99 118.13V118.19H234.36L233.78 122.19H230.83L234.13 101.83ZM237.61 115.4L236.19 105.4H236.13L234.74 115.4H237.61Z" />
<path d="M244.89 104.73H241.56V101.83H251.42V104.73H248.08V122.13H244.89V104.73Z" />
<path d="M254.52 101.83H258.84L262.15 122.13H259L258.42 118.13V118.19H254.79L254.21 122.19H251.21L254.52 101.83ZM258 115.4L256.58 105.4H256.52L255.13 115.4H258Z" />
<path d="M264.12 101.83H268.84C269.481 101.716 270.14 101.757 270.762 101.95C271.384 102.143 271.95 102.483 272.414 102.941C272.877 103.398 273.224 103.96 273.425 104.58C273.626 105.199 273.676 105.857 273.57 106.5V107.74C273.57 109.85 272.88 111.18 271.48 111.74V111.8C271.843 111.898 272.179 112.076 272.463 112.322C272.747 112.568 272.971 112.875 273.12 113.22C273.474 114.134 273.638 115.111 273.6 116.09V119.66C273.595 120.131 273.615 120.601 273.66 121.07C273.699 121.437 273.797 121.795 273.95 122.13H270.7C270.59 121.829 270.513 121.517 270.47 121.2C270.419 120.678 270.399 120.154 270.41 119.63V115.92C270.483 115.253 270.34 114.579 270 114C269.799 113.798 269.556 113.644 269.287 113.549C269.019 113.453 268.733 113.42 268.45 113.45H267.35V122.15H264.16L264.12 101.83ZM268.47 110.53C268.73 110.549 268.991 110.515 269.237 110.429C269.483 110.343 269.709 110.207 269.9 110.03C270.265 109.562 270.437 108.971 270.38 108.38V106.81C270.426 106.252 270.289 105.694 269.99 105.22C269.837 105.048 269.647 104.914 269.433 104.829C269.22 104.744 268.989 104.71 268.76 104.73H267.31V110.53H268.47Z" />
<path d="M278.68 104.73H275.34V101.83H285.2V104.73H281.87V122.13H278.68V104.73Z" />
<path d="M288.07 121.08C287.185 120.031 286.74 118.68 286.83 117.31V106.64C286.741 105.27 287.186 103.92 288.07 102.87C289.071 102.011 290.346 101.539 291.665 101.539C292.984 101.539 294.259 102.011 295.26 102.87C296.151 103.916 296.6 105.269 296.51 106.64V117.31C296.601 118.682 296.152 120.034 295.26 121.08C294.262 121.945 292.985 122.421 291.665 122.421C290.344 122.421 289.068 121.945 288.07 121.08ZM293.32 117.51V106.44C293.32 105.1 292.77 104.44 291.67 104.44C290.57 104.44 290.02 105.1 290.02 106.44V117.51C290.02 118.843 290.57 119.51 291.67 119.51C292.77 119.51 293.32 118.843 293.32 117.51Z" />
<path d="M301.47 104.73H298.14V101.83H308V104.73H304.66V122.13H301.47V104.73Z" />
<path d="M312.75 104.73H309.42V101.83H319.28V104.73H315.94V122.13H312.75V104.73Z" />
<path d="M322.38 101.83H326.7L330.01 122.13H326.82L326.24 118.13V118.19H322.61L322.03 122.19H319.03L322.38 101.83ZM325.86 115.4L324.44 105.4H324.38L322.99 115.4H325.86Z" />
<path d="M332 101.83H335.19V110.38L339.25 101.83H342.44L338.64 109.28L342.5 122.13H339.16L336.46 113.13L335.19 115.71V122.18H332V101.83Z" />
<path d="M344.42 101.83H353.12V104.73H347.61V110.09H352V113H347.62V119.24H353.13V122.14H344.43L344.42 101.83ZM349.06 97.13H352.54L349.44 100.46H347L349.06 97.13Z" />
<path d="M355.38 101.83H360.11C360.75 101.718 361.408 101.76 362.029 101.954C362.649 102.148 363.214 102.488 363.677 102.945C364.139 103.403 364.485 103.964 364.685 104.583C364.886 105.201 364.936 105.858 364.83 106.5V107.74C364.83 109.847 364.137 111.18 362.75 111.74V111.8C363.111 111.898 363.446 112.076 363.728 112.322C364.011 112.568 364.234 112.875 364.38 113.22C364.734 114.134 364.898 115.111 364.86 116.09V119.66C364.855 120.131 364.875 120.601 364.92 121.07C364.964 121.436 365.061 121.793 365.21 122.13H362C361.895 121.828 361.818 121.516 361.77 121.2C361.719 120.678 361.699 120.154 361.71 119.63V115.92C361.776 115.242 361.618 114.56 361.26 113.98C361.06 113.777 360.817 113.622 360.548 113.527C360.28 113.431 359.993 113.398 359.71 113.43H358.61V122.13H355.42L355.38 101.83ZM359.73 110.53C359.991 110.549 360.254 110.515 360.502 110.429C360.749 110.343 360.977 110.207 361.17 110.03C361.531 109.56 361.699 108.97 361.64 108.38V106.81C361.686 106.252 361.549 105.694 361.25 105.22C361.097 105.048 360.907 104.914 360.693 104.829C360.48 104.744 360.249 104.71 360.02 104.73H358.57V110.53H359.73Z" />
<path d="M369.94 104.73H366.6V101.83H376.46V104.73H373.13V122.13H369.94V104.73Z" />
<path d="M186.75 139.83H195.45V142.73H189.94V148.09H194.32V151H189.94V157.24H195.45V160.14H186.75V139.83ZM191.39 135.13H194.87L191.76 138.46H189.36L191.39 135.13Z" />
<path d="M198.41 159.1C197.55 158.032 197.125 156.678 197.22 155.31V154.15H200.22V155.54C200.22 156.86 200.77 157.54 201.88 157.54C202.108 157.555 202.336 157.52 202.549 157.438C202.761 157.355 202.953 157.226 203.11 157.06C203.428 156.609 203.577 156.06 203.53 155.51C203.547 154.721 203.347 153.942 202.95 153.26C202.354 152.377 201.629 151.588 200.8 150.92C199.718 150.031 198.789 148.97 198.05 147.78C197.518 146.806 197.246 145.71 197.26 144.6C197.176 143.25 197.612 141.918 198.48 140.88C198.942 140.42 199.497 140.065 200.107 139.837C200.718 139.609 201.37 139.515 202.02 139.56C202.659 139.515 203.301 139.609 203.901 139.837C204.5 140.065 205.042 140.421 205.49 140.88C206.334 141.952 206.75 143.299 206.66 144.66V145.5H203.66V144.5C203.706 143.959 203.565 143.419 203.26 142.97C203.108 142.809 202.923 142.683 202.717 142.602C202.512 142.521 202.291 142.486 202.07 142.5C201.01 142.5 200.47 143.14 200.47 144.44C200.47 145.17 200.678 145.885 201.07 146.5C201.68 147.369 202.407 148.149 203.23 148.82C204.326 149.702 205.258 150.772 205.98 151.98C206.507 153.009 206.768 154.154 206.74 155.31C206.834 156.697 206.394 158.067 205.51 159.14C205.041 159.605 204.478 159.965 203.859 160.196C203.24 160.427 202.579 160.524 201.92 160.48C201.27 160.52 200.619 160.417 200.012 160.178C199.406 159.94 198.859 159.572 198.41 159.1Z" />
<path d="M215.07 159.11C214.208 158.085 213.774 156.767 213.86 155.43V144.52C213.774 143.183 214.208 141.865 215.07 140.84C216.04 139.995 217.283 139.53 218.57 139.53C219.856 139.53 221.1 139.995 222.07 140.84C222.932 141.865 223.366 143.183 223.28 144.52V146.67H220.28V144.32C220.28 143.06 219.75 142.44 218.69 142.44C217.63 142.44 217.09 143.06 217.09 144.32V155.66C217.09 156.9 217.62 157.52 218.69 157.52C219.76 157.52 220.28 156.9 220.28 155.66V152.56H223.28V155.43C223.366 156.767 222.932 158.085 222.07 159.11C221.102 159.961 219.858 160.43 218.57 160.43C217.282 160.43 216.037 159.961 215.07 159.11Z" />
<path d="M226.3 159.1C225.443 158.03 225.019 156.678 225.11 155.31V154.15H228.11V155.54C228.11 156.873 228.66 157.54 229.76 157.54C229.994 157.547 230.226 157.503 230.441 157.409C230.655 157.316 230.846 157.176 231 157C231.314 156.547 231.463 156 231.42 155.45C231.433 154.661 231.232 153.884 230.84 153.2C230.241 152.319 229.517 151.531 228.69 150.86C227.605 149.97 226.673 148.91 225.93 147.72C225.401 146.745 225.132 145.649 225.15 144.54C225.066 143.19 225.502 141.858 226.37 140.82C226.832 140.36 227.387 140.005 227.997 139.777C228.608 139.549 229.26 139.455 229.91 139.5C230.548 139.455 231.188 139.549 231.786 139.777C232.384 140.005 232.924 140.361 233.37 140.82C234.221 141.888 234.642 143.237 234.55 144.6V145.44H231.55V144.44C231.596 143.899 231.455 143.359 231.15 142.91C230.998 142.749 230.813 142.624 230.607 142.543C230.401 142.462 230.181 142.426 229.96 142.44C228.89 142.44 228.36 143.08 228.36 144.38C228.36 145.11 228.568 145.825 228.96 146.44C229.564 147.314 230.292 148.095 231.12 148.76C232.216 149.642 233.148 150.712 233.87 151.92C234.392 152.951 234.653 154.094 234.63 155.25C234.722 156.638 234.278 158.009 233.39 159.08C232.923 159.546 232.362 159.906 231.745 160.138C231.127 160.369 230.468 160.465 229.81 160.42C229.164 160.466 228.516 160.372 227.91 160.144C227.305 159.916 226.755 159.56 226.3 159.1Z" />
<path d="M239.27 139.83H243.59L246.89 160.13H243.7L243.12 156.13V156.19H239.5L238.92 160.19H235.92L239.27 139.83ZM242.75 153.4L241.32 143.4H241.27L239.87 153.4H242.75Z" />
<path d="M248.86 139.83H252.05V157.23H257.3V160.13H248.86V139.83Z" />
<path d="M261.86 139.83H266.18L269.48 160.13H266.29L265.71 156.13V156.19H262.09L261.51 160.19H258.51L261.86 139.83ZM264.32 135.13H267.8L264.7 138.46H262.29L264.32 135.13ZM265.32 153.4L263.89 143.4H263.84L262.44 153.4H265.32Z" />
<path d="M271.45 139.83H276.33C276.979 139.779 277.632 139.866 278.245 140.085C278.859 140.304 279.419 140.65 279.89 141.1C280.753 142.147 281.18 143.487 281.08 144.84V155.11C281.18 156.463 280.753 157.803 279.89 158.85C279.42 159.301 278.86 159.649 278.246 159.869C277.633 160.09 276.98 160.179 276.33 160.13H271.45V139.83ZM276.27 157.23C276.492 157.243 276.714 157.208 276.921 157.127C277.129 157.045 277.316 156.92 277.47 156.76C277.789 156.324 277.938 155.788 277.89 155.25V144.7C277.938 144.162 277.789 143.626 277.47 143.19C277.315 143.031 277.128 142.907 276.921 142.828C276.713 142.748 276.491 142.715 276.27 142.73H274.64V157.23H276.27Z" />
<path d="M286 142.73H282.67V139.83H292.53V142.73H289.19V160.13H286V142.73Z" />
<path d="M295.67 139.83H300L303.31 160.13H300.12L299.54 156.13V156.19H295.9L295.32 160.19H292.32L295.67 139.83ZM299.15 153.4L297.73 143.4H297.67L296.28 153.4H299.15Z" />
<path d="M306.2 159.1C305.321 158.041 304.884 156.683 304.98 155.31V144.64C304.885 143.27 305.322 141.916 306.2 140.86C307.181 140.008 308.436 139.539 309.735 139.539C311.034 139.539 312.289 140.008 313.27 140.86C314.143 141.919 314.579 143.271 314.49 144.64V146.38H311.49V144.44C311.49 143.1 310.94 142.44 309.84 142.44C308.74 142.44 308.19 143.1 308.19 144.44V155.54C308.19 156.873 308.74 157.54 309.84 157.54C310.94 157.54 311.49 156.873 311.49 155.54V151.54H309.9V148.64H314.51V155.28C314.601 156.653 314.164 158.008 313.29 159.07C312.309 159.922 311.054 160.391 309.755 160.391C308.456 160.391 307.201 159.922 306.22 159.07L306.2 159.1Z" />
<path d="M316.26 160.13V157.23C316.588 157.302 316.924 157.339 317.26 157.34C317.517 157.362 317.776 157.331 318.02 157.249C318.264 157.166 318.489 157.034 318.68 156.86C318.85 156.66 318.98 156.427 319.06 156.177C319.141 155.926 319.171 155.662 319.15 155.4V139.83H322.34V155.31C322.448 156.649 322.036 157.977 321.19 159.02C320.726 159.457 320.176 159.791 319.575 160.001C318.973 160.212 318.335 160.293 317.7 160.24C317.218 160.243 316.736 160.206 316.26 160.13Z" />
<path d="M327.57 139.83H331.89L335.2 160.13H332L331.42 156.13V156.19H327.8L327.22 160.19H324.22L327.57 139.83ZM331.05 153.4L329.63 143.4H329.57L328.18 153.4H331.05Z" />
<path d="M337.17 139.83H340.36V160.13H337.17V139.83Z" />
<path d="M343.17 139.83H346.36V148.38L350.42 139.83H353.61L349.81 147.28L353.67 160.13H350.33L347.64 151.13L346.36 153.71V160.18H343.17V139.83Z" />
<path d="M355.61 139.83H364.31V142.73H358.8V148.09H363.18V151H358.8V157.24H364.31V160.14H355.61V139.83ZM360.25 135.13H363.73L360.63 138.46H358.22L360.25 135.13Z" />
<path d="M366.57 139.83H371.3C371.938 139.723 372.593 139.77 373.21 139.967C373.827 140.163 374.388 140.504 374.847 140.96C375.306 141.416 375.65 141.975 375.851 142.591C376.051 143.206 376.102 143.861 376 144.5V145.74C376 147.847 375.303 149.18 373.91 149.74V149.8C374.272 149.899 374.607 150.078 374.891 150.324C375.175 150.569 375.4 150.876 375.55 151.22C375.9 152.135 376.06 153.111 376.02 154.09V157.66C376.015 158.131 376.035 158.601 376.08 159.07C376.124 159.436 376.221 159.793 376.37 160.13H373.13C373.017 159.829 372.937 159.518 372.89 159.2C372.844 158.678 372.828 158.154 372.84 157.63V153.92C372.901 153.242 372.743 152.562 372.39 151.98C372.188 151.777 371.943 151.623 371.673 151.527C371.402 151.432 371.114 151.399 370.83 151.43H369.73V160.13H366.54L366.57 139.83ZM370.92 148.53C371.181 148.549 371.444 148.515 371.692 148.429C371.939 148.343 372.167 148.207 372.36 148.03C372.725 147.562 372.897 146.971 372.84 146.38V144.81C372.888 144.25 372.747 143.69 372.44 143.22C372.287 143.048 372.097 142.914 371.883 142.829C371.67 142.744 371.439 142.71 371.21 142.73H369.76V148.53H370.92Z" />
<path d="M381.13 142.73H377.79V139.83H387.65V142.73H384.32V160.13H381.13V142.73Z" />
<path d="M175.17 83.22C175.102 83.2199 175.034 83.2337 174.971 83.2607C174.909 83.2877 174.852 83.3272 174.805 83.3769C174.758 83.4265 174.722 83.4853 174.699 83.5494C174.676 83.6136 174.666 83.6819 174.67 83.75C174.76 85.16 174.8 86.58 174.8 88C174.8 105.116 169.724 121.848 160.215 136.079C150.706 150.31 137.19 161.403 121.377 167.953C105.564 174.503 88.1639 176.216 71.3768 172.877C54.5897 169.538 39.1697 161.296 27.0669 149.193C14.964 137.09 6.72189 121.67 3.38273 104.883C0.0435612 88.096 1.75734 70.6957 8.30735 54.8826C14.8574 39.0695 25.9494 25.5538 40.1808 16.0446C54.4123 6.53548 71.1439 1.46 88.2599 1.46C113.18 1.46 137.32 14.65 153.75 34.07C153.793 34.1203 153.846 34.1615 153.905 34.1913C153.964 34.221 154.028 34.2388 154.094 34.2434C154.16 34.2481 154.227 34.2396 154.29 34.2184C154.352 34.1972 154.41 34.1637 154.46 34.12L154.71 33.9C154.761 33.8585 154.802 33.8073 154.833 33.7493C154.864 33.6914 154.882 33.6279 154.888 33.5627C154.893 33.4974 154.886 33.4317 154.866 33.3694C154.845 33.3071 154.813 33.2495 154.77 33.2C152.83 30.92 150.77 28.7 148.59 26.57C131.38 9.74 109.39 0.0800018 88.2599 0.0800018C70.8709 0.0800018 53.8725 5.23642 39.4142 14.8972C24.9558 24.558 13.6869 38.2892 7.0324 54.3545C0.377939 70.4197 -1.36317 88.0975 2.02924 105.152C5.42165 122.207 13.7952 137.873 26.0911 150.169C38.3869 162.465 54.0527 170.838 71.1075 174.231C88.1624 177.623 105.84 175.882 121.905 169.227C137.971 162.573 151.702 151.304 161.363 136.846C171.023 122.387 176.18 105.389 176.18 88C176.18 86.73 176.18 85.05 176.07 83.69C176.062 83.5609 176.005 83.4398 175.91 83.3522C175.815 83.2646 175.689 83.2172 175.56 83.22H175.17Z" />
<path d="M176 46.35C176 46.35 178.68 34.17 172.93 23.5C168.68 8.41 167 2.62 167 2.62C167 2.62 165.42 2.81 164.23 6.87C163.04 10.93 163.49 18.87 163.49 18.87C163.49 18.87 163.36 21.97 160.63 31.8C160.415 32.5892 160.385 33.4171 160.54 34.22C162.54 44.72 162.3 42.15 162.54 46.52C149.24 40 142.39 39.34 142.39 39.34C141.511 39.0797 140.586 39.0149 139.68 39.15C136.61 39.78 101.77 42.8 103.38 44.9C113.26 47.07 121.57 48.9 131.13 55.15C135.85 58.22 145.48 60.02 157.61 61.89C157.23 74.74 155.79 69.28 155.02 81.99C151.2 86.61 146.92 97.57 144.2 105.87C142 116.98 142 119.28 142 119.28C142 119.28 148.54 108.94 151.12 102.22C151.527 101.169 152.135 100.208 152.91 99.39C157.59 94.39 158.33 94.27 158.33 94.27C158.33 94.27 160.54 107.61 167.09 111.27C164.72 104.27 155.77 86.42 176.83 64.88C178.4 63.46 181.37 61.66 179.38 56.58C181.303 56.7419 183.2 57.1348 185.03 57.75C184.351 56.1411 184.09 54.3869 184.27 52.65C184.64 49.77 183.52 44.5 176 46.35Z" />
<path d="M46.1899 67.27C46.0972 67.193 45.9966 67.126 45.8899 67.07C45.7599 67 45.5099 66.89 45.1499 66.74C44.7936 66.5969 44.4206 66.4994 44.0399 66.45C43.6035 66.417 43.1646 66.4542 42.7399 66.56C42.2359 66.6837 41.765 66.9157 41.3599 67.24C40.8426 67.6967 40.4065 68.2376 40.0699 68.84C39.5875 69.6954 39.2178 70.6097 38.9699 71.56C38.6111 72.935 38.3604 74.3359 38.2199 75.75C38.0167 77.6799 37.9199 79.6195 37.9299 81.56V94H42.8699V97H37.9299C37.9299 98.11 37.9299 99.84 37.9299 102.17C37.9299 104.5 37.9299 106.1 37.9299 106.95V128.1H30.9299V81.82C30.9299 75.2733 31.4765 70.4067 32.5699 67.22C33.6699 64.04 35.4899 62.05 38.0499 61.22C38.8935 61.0269 39.7748 61.0789 40.5899 61.37C41.7723 61.8007 42.8471 62.4831 43.7399 63.37C44.8489 64.4617 45.6878 65.7971 46.1899 67.27Z" />
<path d="M57.7899 89.89C56.5756 91.8077 55.0555 93.5136 53.2899 94.94C53.5394 95.8648 53.9863 96.7245 54.5999 97.46C55.0191 97.9905 55.5974 98.3726 56.2499 98.55C56.7678 98.6675 57.3002 98.7079 57.8299 98.67C58.2562 98.6563 58.6765 98.5648 59.0699 98.4L59.5299 98.18C58.8248 99.5627 57.6621 100.658 56.2399 101.28C55.1303 101.879 53.8602 102.114 52.6099 101.95C51.6068 101.742 50.6683 101.297 49.873 100.652C49.0778 100.006 48.4492 99.179 48.0399 98.24C47.1199 96.24 46.6599 93.2133 46.6599 89.16C46.586 85.4457 46.7162 81.7301 47.0499 78.03C47.4832 74.85 48.4632 72.8133 49.9899 71.92C50.7445 71.5057 51.5891 71.2825 52.4499 71.27C53.0799 71.27 53.6999 71.27 54.2999 71.35C55.4111 71.3877 56.5073 71.6178 57.5399 72.03C58.9117 72.5553 60.0337 73.5808 60.6799 74.9C61.6999 76.9467 61.7999 79.6133 60.9799 82.9C60.2794 85.3791 59.2036 87.7364 57.7899 89.89ZM52.8799 92.89C54.169 91.7084 55.2986 90.3638 56.2399 88.89C57.5414 86.88 58.5325 84.6854 59.1799 82.38C59.9065 79.6067 59.8599 77.4067 59.0399 75.78C58.6336 74.917 57.9206 74.2362 57.0399 73.87C55.4099 73.31 54.2599 73.76 53.6099 75.23C52.9599 76.7 52.6799 79.65 52.6099 84.29C52.6099 85.3567 52.6099 87.0233 52.6099 89.29C52.6054 90.5052 52.6956 91.7189 52.8799 92.92V92.89Z" />
<path d="M69.7299 89.29C69.7115 90.7921 69.8388 92.2925 70.1099 93.77C70.2754 94.7645 70.6138 95.7223 71.1099 96.6C71.4641 97.1786 71.9217 97.687 72.4599 98.1C72.8787 98.4382 73.3925 98.6374 73.9299 98.67C74.3791 98.7065 74.8306 98.7065 75.2799 98.67C75.6243 98.6277 75.961 98.5368 76.2799 98.4L76.6599 98.23C75.9483 99.6114 74.7831 100.706 73.3599 101.33C72.2504 101.929 70.9802 102.164 69.7299 102C68.728 101.793 67.7908 101.347 66.9971 100.701C66.2035 100.056 65.5768 99.2287 65.1699 98.29C64.2499 96.29 63.7899 93.2633 63.7899 89.21V84.21C63.7899 80.1433 64.2499 77.1167 65.1699 75.13C65.5754 74.1903 66.2017 73.3624 66.9955 72.7165C67.7894 72.0707 68.7274 71.6259 69.7299 71.42C70.4421 71.2983 71.1722 71.3324 71.8699 71.52C72.8284 71.7573 73.7318 72.1784 74.5299 72.76C75.4354 73.3624 76.1693 74.1893 76.6599 75.16L76.4099 75.03L75.7899 74.83C75.4852 74.7428 75.1743 74.6792 74.8599 74.64C74.496 74.6039 74.1289 74.6207 73.7699 74.69C73.3609 74.7637 72.9681 74.9093 72.6099 75.12C72.1921 75.3849 71.8261 75.7238 71.5299 76.12C71.1407 76.6396 70.8275 77.212 70.5999 77.82C70.304 78.6629 70.0962 79.5342 69.9799 80.42C69.8022 81.6216 69.7186 82.8353 69.7299 84.05V89.29Z" />
<path d="M100.74 93.11C101.001 94.7542 100.613 96.4354 99.6599 97.8C98.6624 99.263 97.2773 100.419 95.6599 101.14C93.9293 101.936 92.0449 102.343 90.1399 102.33C88.9647 102.368 87.7883 102.321 86.6199 102.19H86.1899C84.6003 102.016 83.0662 101.504 81.6899 100.69C80.6414 100.114 79.7437 99.2985 79.0699 98.31C78.9512 97.9256 78.9512 97.5144 79.0699 97.13C79.1756 96.7194 79.323 96.3206 79.5099 95.94L79.8099 95.4C79.77 95.9213 79.8737 96.4436 80.1099 96.91C80.4191 97.5221 80.8435 98.0687 81.3599 98.52C82.1157 99.1482 82.9945 99.6115 83.9399 99.88C85.2347 100.282 86.5841 100.481 87.9399 100.47C89.9595 100.49 91.9227 99.8041 93.4899 98.53C94.1264 97.9833 94.5961 97.2686 94.8455 96.4675C95.0948 95.6664 95.1137 94.8113 94.8999 94C94.7246 93.3187 94.3441 92.7078 93.8099 92.25C93.149 91.6425 92.421 91.1124 91.6399 90.67C90.7999 90.18 89.8699 89.67 88.8699 89.13C87.8339 88.5774 86.832 87.963 85.8699 87.29C84.9135 86.6185 84.0169 85.8657 83.1899 85.04C82.3371 84.1775 81.6581 83.159 81.1899 82.04C80.694 80.8246 80.4459 79.5225 80.4599 78.21C80.4466 77.2577 80.6772 76.3179 81.1299 75.48C81.5396 74.6763 82.1448 73.9886 82.8899 73.48C83.6645 72.9538 84.4965 72.5177 85.3699 72.18C86.2863 71.8118 87.2484 71.5696 88.2299 71.46C89.2299 71.35 90.1699 71.27 91.1199 71.23C91.9703 71.1748 92.8244 71.232 93.6599 71.4C94.6394 71.4877 95.6037 71.6994 96.5299 72.03C96.7961 72.091 97.047 72.2058 97.2672 72.3675C97.4873 72.5292 97.672 72.7342 97.8099 72.97C98.0867 73.3841 98.2646 73.8562 98.3299 74.35L98.3799 75C97.4666 73.9333 95.7999 73.3233 93.3799 73.17H91.9999C91.2462 73.1315 90.4924 73.2444 89.7831 73.5021C89.0738 73.7597 88.4232 74.1568 87.8699 74.67C87.385 75.1059 87.0006 75.642 86.7433 76.2411C86.486 76.8403 86.362 77.4882 86.3799 78.14C86.4329 79.1012 86.7438 80.0304 87.2799 80.83C87.808 81.6222 88.4877 82.3019 89.2799 82.83C90.1052 83.3815 90.9672 83.876 91.8599 84.31C92.7999 84.78 93.7399 85.26 94.6999 85.77C95.6283 86.2664 96.5205 86.8278 97.3699 87.45C99.1818 88.8178 100.39 90.8369 100.74 93.08V93.11Z" />
<path d="M116.85 84.09L125 96L123.8 101.45C123.754 101.654 123.649 101.841 123.499 101.987C123.349 102.133 123.159 102.233 122.954 102.273C122.748 102.313 122.535 102.293 122.341 102.214C122.147 102.135 121.98 102.002 121.86 101.83L113.3 89.32L108.94 95.84V102.3H103V64.89L107.06 61.07C107.206 60.9128 107.398 60.8065 107.609 60.7669C107.819 60.7273 108.037 60.7564 108.23 60.85C108.433 60.9231 108.607 61.06 108.726 61.2402C108.845 61.4205 108.903 61.6344 108.89 61.85V92.58L123.2 71.31L124.73 72.31L116.85 84.09Z" />
<path d="M138.31 89.89C137.099 91.81 135.578 93.5164 133.81 94.94C134.064 95.8631 134.51 96.7219 135.12 97.46C135.542 97.9869 136.119 98.3681 136.77 98.55C137.288 98.6672 137.82 98.7076 138.35 98.67C138.776 98.6574 139.197 98.5659 139.59 98.4L140.06 98.18C139.348 99.5614 138.183 100.656 136.76 101.28C135.65 101.879 134.38 102.114 133.13 101.95C132.127 101.742 131.188 101.297 130.393 100.652C129.598 100.006 128.969 99.179 128.56 98.24C127.64 96.24 127.19 93.24 127.19 89.16C127.114 85.4459 127.241 81.7303 127.57 78.03C128 74.85 128.99 72.81 130.51 71.92C131.264 71.5057 132.109 71.2825 132.97 71.27C133.6 71.27 134.22 71.27 134.82 71.35C135.934 71.3888 137.034 71.6188 138.07 72.03C139.437 72.5583 140.555 73.5832 141.2 74.9C142.22 76.9467 142.32 79.6133 141.5 82.9C140.803 85.3805 139.727 87.7383 138.31 89.89ZM133.4 92.89C134.692 91.7111 135.822 90.366 136.76 88.89C138.061 86.88 139.053 84.6854 139.7 82.38C140.43 79.61 140.38 77.38 139.57 75.78C139.158 74.921 138.447 74.2418 137.57 73.87C135.93 73.31 134.783 73.7633 134.13 75.23C133.477 76.6967 133.143 79.7167 133.13 84.29C133.13 85.3567 133.13 87.0233 133.13 89.29C133.125 90.5052 133.216 91.7189 133.4 92.92V92.89Z" />
</svg>
