<svg viewBox="0 0 157 19" fill="black" xmlns="http://www.w3.org/2000/svg">
<path d="M147.5 0C152.747 6.25663e-08 157 4.25329 157 9.5C157 14.7467 152.747 19 147.5 19C142.253 19 138 14.7467 138 9.5C138 4.25329 142.253 -6.25663e-08 147.5 0Z" />
<path fill-rule="evenodd" clip-rule="evenodd" d="M155 9.5C155 5.35786 151.642 2 147.5 2C143.358 2 140 5.35786 140 9.5C140 13.6421 143.358 17 147.5 17C151.642 17 155 13.6421 155 9.5ZM157 9.5C157 4.25329 152.747 6.25663e-08 147.5 0C142.253 -6.25663e-08 138 4.25329 138 9.5C138 14.7467 142.253 19 147.5 19C152.747 19 157 14.7467 157 9.5Z" />
<path fill-rule="evenodd" clip-rule="evenodd" d="M119 9.5C119 5.35786 115.642 2 111.5 2C107.358 2 104 5.35786 104 9.5C104 13.6421 107.358 17 111.5 17C115.642 17 119 13.6421 119 9.5ZM121 9.5C121 4.25329 116.747 6.25663e-08 111.5 0C106.253 -6.25663e-08 102 4.25329 102 9.5C102 14.7467 106.253 19 111.5 19C116.747 19 121 14.7467 121 9.5Z" />
<path fill-rule="evenodd" clip-rule="evenodd" d="M83 9.5C83 5.35786 79.6421 2 75.5 2C71.3579 2 68 5.35786 68 9.5C68 13.6421 71.3579 17 75.5 17C79.6421 17 83 13.6421 83 9.5ZM85 9.5C85 4.25329 80.7467 6.25663e-08 75.5 0C70.2533 -6.25663e-08 66 4.25329 66 9.5C66 14.7467 70.2533 19 75.5 19C80.7467 19 85 14.7467 85 9.5Z" />
<path fill-rule="evenodd" clip-rule="evenodd" d="M47 9.5C47 5.35786 43.6421 2 39.5 2C35.3579 2 32 5.35786 32 9.5C32 13.6421 35.3579 17 39.5 17C43.6421 17 47 13.6421 47 9.5ZM49 9.5C49 4.25329 44.7467 6.25663e-08 39.5 0C34.2533 -6.25663e-08 30 4.25329 30 9.5C30 14.7467 34.2533 19 39.5 19C44.7467 19 49 14.7467 49 9.5Z" />
<path fill-rule="evenodd" clip-rule="evenodd" d="M17 9.5C17 5.35786 13.6421 2 9.5 2C5.35786 2 2 5.35786 2 9.5C2 13.6421 5.35786 17 9.5 17C13.6421 17 17 13.6421 17 9.5ZM19 9.5C19 4.25329 14.7467 6.25663e-08 9.5 0C4.25329 -6.25663e-08 6.25663e-08 4.25329 0 9.5C-6.25663e-08 14.7467 4.25329 19 9.5 19C14.7467 19 19 14.7467 19 9.5Z" />
</svg>
