<svg viewBox="0 0 60 63" fill="black" xmlns="http://www.w3.org/2000/svg">
<path fill-rule="evenodd" clip-rule="evenodd" d="M2 13C2 19.1498 6.77422 24 12.5 24C18.2258 24 23 19.1498 23 13C23 6.85021 18.2258 2 12.5 2C6.77422 2 2 6.85021 2 13ZM0 13C-3.13835e-07 20.1797 5.59644 26 12.5 26C19.4036 26 25 20.1797 25 13C25 5.8203 19.4036 3.01764e-07 12.5 0C5.59644 -3.01764e-07 3.13835e-07 5.8203 0 13Z" />
<path fill-rule="evenodd" clip-rule="evenodd" d="M37 13C37 19.1498 41.7742 24 47.5 24C53.2258 24 58 19.1498 58 13C58 6.85021 53.2258 2 47.5 2C41.7742 2 37 6.85021 37 13ZM35 13C35 20.1797 40.5964 26 47.5 26C54.4036 26 60 20.1797 60 13C60 5.8203 54.4036 3.01764e-07 47.5 0C40.5964 -3.01764e-07 35 5.8203 35 13Z" />
<path d="M47.5 63C40.5964 63 35 57.4036 35 50.5C35 43.5964 40.5964 38 47.5 38C54.4036 38 60 43.5964 60 50.5C60 57.4036 54.4036 63 47.5 63Z" />
<path fill-rule="evenodd" clip-rule="evenodd" d="M37 50.5C37 56.299 41.701 61 47.5 61C53.299 61 58 56.299 58 50.5C58 44.701 53.299 40 47.5 40C41.701 40 37 44.701 37 50.5ZM35 50.5C35 57.4036 40.5964 63 47.5 63C54.4036 63 60 57.4036 60 50.5C60 43.5964 54.4036 38 47.5 38C40.5964 38 35 43.5964 35 50.5Z" />
<path fill-rule="evenodd" clip-rule="evenodd" d="M2 50.5C2 56.299 6.70101 61 12.5 61C18.299 61 23 56.299 23 50.5C23 44.701 18.299 40 12.5 40C6.70101 40 2 44.701 2 50.5ZM2.18556e-08 50.5C-2.79909e-07 57.4036 5.59644 63 12.5 63C19.4036 63 25 57.4036 25 50.5C25 43.5964 19.4036 38 12.5 38C5.59644 38 3.2362e-07 43.5964 2.18556e-08 50.5Z" />
</svg>
