<svg viewBox="0 0 90 90" xmlns="http://www.w3.org/2000/svg">
<path d="M42.1771 22.8025C43.107 22.0188 44.2839 21.589 45.5 21.589C46.7161 21.589 47.893 22.0188 48.8229 22.8025L64.2917 35.8467C65.4535 36.8275 66.125 38.269 66.125 39.7883V62.2536C66.125 63.3172 65.7025 64.3372 64.9504 65.0893C64.1983 65.8414 63.1782 66.264 62.1146 66.264H54.0938C53.0301 66.264 52.0101 65.8414 51.258 65.0893C50.5059 64.3372 50.0833 63.3172 50.0833 62.2536V49.6494C50.0833 49.4974 50.023 49.3517 49.9155 49.2443C49.8081 49.1368 49.6624 49.0765 49.5104 49.0765H41.4896C41.3376 49.0765 41.1919 49.1368 41.0845 49.2443C40.977 49.3517 40.9167 49.4974 40.9167 49.6494V62.2536C40.9167 63.3172 40.4941 64.3372 39.742 65.0893C38.9899 65.8414 37.9699 66.264 36.9062 66.264H28.8854C28.3588 66.264 27.8373 66.1602 27.3507 65.9587C26.8641 65.7571 26.422 65.4617 26.0496 65.0893C25.6772 64.7169 25.3818 64.2748 25.1803 63.7883C24.9787 63.3017 24.875 62.7802 24.875 62.2536V39.7883C24.875 38.269 25.5465 36.8275 26.7083 35.8467L42.1771 22.8025ZM46.6069 25.431C46.297 25.1702 45.905 25.0272 45.5 25.0272C45.095 25.0272 44.703 25.1702 44.3931 25.431L28.9244 38.4729C28.7329 38.6341 28.579 38.8351 28.4733 39.0619C28.3676 39.2887 28.3128 39.5358 28.3125 39.786V62.2513C28.3125 62.5675 28.5692 62.8242 28.8854 62.8242H36.9062C37.0582 62.8242 37.2039 62.7638 37.3114 62.6564C37.4188 62.5489 37.4792 62.4032 37.4792 62.2513V49.6471C37.4792 47.431 39.2758 45.6367 41.4896 45.6367H49.5104C51.7242 45.6367 53.5208 47.431 53.5208 49.6471V62.2513C53.5208 62.5675 53.7775 62.8242 54.0938 62.8242H62.1146C62.2665 62.8242 62.4123 62.7638 62.5197 62.6564C62.6271 62.5489 62.6875 62.4032 62.6875 62.2513V39.7883C62.6872 39.5381 62.6324 39.291 62.5267 39.0642C62.421 38.8374 62.2671 38.6364 62.0756 38.4752L46.6069 25.431Z" />
<path d="M45 84.375C34.5571 84.375 24.5419 80.2266 17.1577 72.8423C9.77342 65.4581 5.625 55.4429 5.625 45C5.625 34.5571 9.77342 24.5419 17.1577 17.1577C24.5419 9.77343 34.5571 5.625 45 5.625C55.4429 5.625 65.458 9.77343 72.8423 17.1577C80.2265 24.5419 84.3749 34.5571 84.3749 45C84.3749 55.4429 80.2265 65.4581 72.8423 72.8423C65.458 80.2266 55.4429 84.375 45 84.375ZM45 90C56.9347 90 68.3806 85.2589 76.8198 76.8198C85.2589 68.3807 89.9999 56.9347 89.9999 45C89.9999 33.0653 85.2589 21.6193 76.8198 13.1802C68.3806 4.74106 56.9347 0 45 0C33.0652 0 21.6193 4.74106 13.1802 13.1802C4.74106 21.6193 0 33.0653 0 45C0 56.9347 4.74106 68.3807 13.1802 76.8198C21.6193 85.2589 33.0652 90 45 90Z" />
</svg>
