<svg viewBox="0 0 56 61" xmlns="http://www.w3.org/2000/svg">
<path d="M23.2792 1.6548C24.5303 0.586116 26.1138 0 27.75 0C29.3862 0 30.9697 0.586116 32.2208 1.6548L53.0333 19.4423C54.5966 20.7798 55.5 22.7454 55.5 24.8173V55.4517C55.5 56.9021 54.9315 58.2931 53.9196 59.3187C52.9077 60.3442 51.5352 60.9204 50.1042 60.9204H39.3125C37.8814 60.9204 36.509 60.3442 35.4971 59.3187C34.4852 58.2931 33.9167 56.9021 33.9167 55.4517V38.2642C33.9167 38.057 33.8355 37.8583 33.6909 37.7117C33.5463 37.5652 33.3503 37.4829 33.1458 37.4829H22.3542C22.1497 37.4829 21.9537 37.5652 21.8091 37.7117C21.6645 37.8583 21.5833 38.057 21.5833 38.2642V55.4517C21.5833 56.9021 21.0148 58.2931 20.0029 59.3187C18.991 60.3442 17.6186 60.9204 16.1875 60.9204H5.39583C4.68724 60.9204 3.98559 60.779 3.33094 60.5041C2.67629 60.2293 2.08145 59.8265 1.5804 59.3187C1.07935 58.8108 0.6819 58.208 0.410734 57.5445C0.139568 56.881 0 56.1698 0 55.4517V24.8173C0 22.7454 0.903416 20.7798 2.46667 19.4423L23.2792 1.6548ZM29.2392 5.23917C28.8224 4.88349 28.2949 4.68845 27.75 4.68845C27.2051 4.68845 26.6776 4.88349 26.2607 5.23917L5.44825 23.0235C5.19069 23.2433 4.98358 23.5174 4.84139 23.8267C4.69919 24.1359 4.62535 24.473 4.625 24.8142V55.4486C4.625 55.8798 4.97033 56.2298 5.39583 56.2298H16.1875C16.3919 56.2298 16.588 56.1475 16.7326 56.001C16.8771 55.8545 16.9583 55.6558 16.9583 55.4486V38.261C16.9583 35.2392 19.3757 32.7923 22.3542 32.7923H33.1458C36.1243 32.7923 38.5417 35.2392 38.5417 38.261V55.4486C38.5417 55.8798 38.887 56.2298 39.3125 56.2298H50.1042C50.3086 56.2298 50.5047 56.1475 50.6492 56.001C50.7938 55.8545 50.875 55.6558 50.875 55.4486V24.8173C50.8747 24.4761 50.8008 24.1391 50.6586 23.8298C50.5164 23.5205 50.3093 23.2464 50.0517 23.0267L29.2392 5.23917Z" />
</svg>
