<svg viewBox="0 0 50 50" fill="black" xmlns="http://www.w3.org/2000/svg">
<path d="M24.6146 0C10.7319 0 0 10.1658 0 23.8761C0 31.039 2.92913 37.2664 7.72897 41.5248C8.12281 41.8447 8.36895 42.3863 8.39357 42.9278L8.51664 47.3092C8.6151 48.7122 10.0181 49.6229 11.2981 49.0568L16.1718 46.9153C16.5902 46.7677 17.0579 46.6938 17.4763 46.7677C19.6917 47.4323 22.1531 47.7522 24.6146 47.7522C38.4972 47.7522 49.2291 37.5864 49.2291 23.8761C49.2291 10.1658 38.4972 0 24.6146 0ZM39.3833 18.3625L32.1712 29.8575C31.0143 31.6543 28.5529 32.122 26.8299 30.7682L21.0701 26.5099C20.8144 26.3181 20.5035 26.2145 20.1839 26.2145C19.8644 26.2145 19.5535 26.3181 19.2978 26.5099L11.5196 32.4174C10.4858 33.2297 9.132 31.9989 9.84583 30.8667L17.0579 19.3717C18.2148 17.5748 20.6762 17.1071 22.3993 18.3871L28.1591 22.7192C28.4147 22.911 28.7256 23.0146 29.0452 23.0146C29.3647 23.0146 29.6757 22.911 29.9313 22.7192L37.7095 16.8117C38.7433 15.9995 40.0971 17.2302 39.3833 18.3625Z" />
</svg>
