<svg viewBox="0 0 107 101" xmlns="http://www.w3.org/2000/svg">
<path d="M20.9375 5.58594H40.2782C41.3391 5.58627 42.3604 5.9893 43.1357 6.71362C43.9109 7.43794 44.3823 8.42952 44.4546 9.48802C44.527 10.5465 44.1948 11.593 43.5252 12.416C42.8557 13.239 41.8987 13.7772 40.8477 13.9219L40.2782 13.9609H20.9375C17.7543 13.9605 14.6896 15.1686 12.3629 17.3409C10.0361 19.5132 8.62079 22.4879 8.40292 25.6636L8.375 26.5234V79.5651C8.37461 82.7483 9.58265 85.813 11.755 88.1397C13.9273 90.4665 16.9019 91.8818 20.0777 92.0997L20.9375 92.1276H73.9792C77.1624 92.128 80.227 90.92 82.5538 88.7476C84.8805 86.5753 86.2959 83.6007 86.5137 80.4249L86.5417 79.5651V76.7846C86.5323 75.7166 86.9314 74.6855 87.6573 73.902C88.3832 73.1186 89.381 72.6421 90.4466 72.5701C91.5121 72.4981 92.565 72.8359 93.3897 73.5145C94.2144 74.1931 94.7487 75.1612 94.8832 76.2207L94.9167 76.7846V79.5651C94.9171 84.9251 92.862 90.0811 89.1745 93.9711C85.4871 97.8611 80.4482 100.189 75.0958 100.475L73.9792 100.503H20.9375C15.5775 100.503 10.4215 98.4479 6.53146 94.7605C2.64146 91.073 0.313783 86.0341 0.0279174 80.6818L8.47184e-08 79.5651V26.5234C-0.000481786 21.1635 2.05468 16.0074 5.74213 12.1174C9.42958 8.2274 14.4685 5.89972 19.8208 5.61386L20.9375 5.58594H40.2782H20.9375ZM64.2251 19.6559V4.19011C64.2246 3.41986 64.4366 2.66441 64.8377 2.00684C65.2388 1.34928 65.8135 0.815087 66.4986 0.463025C67.1836 0.110964 67.9526 -0.0453236 68.7207 0.0113537C69.4889 0.068031 70.2265 0.335478 70.8525 0.784274L71.3103 1.16952L104.777 33.2737C106.34 34.77 106.485 37.182 105.207 38.8403L104.777 39.3149L71.3103 71.4302C70.7549 71.9638 70.0631 72.334 69.311 72.4999C68.5589 72.6658 67.7755 72.6211 67.0472 72.3706C66.3188 72.1201 65.6737 71.6736 65.1827 71.0802C64.6917 70.4867 64.3738 69.7694 64.2642 69.007L64.2251 68.4096V53.195L62.3044 53.3625C48.9044 54.7584 36.0628 60.7884 23.7013 71.5642C20.7979 74.0934 16.3145 71.7038 16.7947 67.8904C20.502 38.187 36.0348 21.8167 62.5501 19.762L64.2251 19.6504V4.19011V19.6559ZM72.6001 14.0112V23.7318C72.6001 24.8424 72.1589 25.9075 71.3736 26.6928C70.5883 27.4781 69.5232 27.9193 68.4126 27.9193C46.7827 27.9193 33.3828 37.2769 27.5873 56.7125L27.1462 58.2703L29.1115 56.947C41.6126 48.7842 54.7223 44.6693 68.4182 44.6693C69.4301 44.6693 70.4077 45.0358 71.1704 45.7009C71.933 46.366 72.429 47.2848 72.5666 48.2873L72.6057 48.8568V58.5885L95.8267 36.2943L72.6001 14.0112Z" />
</svg>
