<svg viewBox="0 0 140 187" fill="black" xmlns="http://www.w3.org/2000/svg">
<path d="M8.43005 1.7287C10.9741 0.416347 13.8303 -0.167481 16.6842 0.0414437C19.5381 0.250368 22.2792 1.24395 24.6058 2.91286L133.481 80.8181C135.497 82.2594 137.141 84.1622 138.275 86.3683C139.408 88.5743 140 91.0198 140 93.5011C140 95.9824 139.408 98.4278 138.275 100.634C137.141 102.84 135.497 104.743 133.481 106.184L24.6058 184.089C22.28 185.757 19.5403 186.75 16.6878 186.959C13.8353 187.167 10.9806 186.584 8.43742 185.274C5.89425 183.963 3.76113 181.975 2.27258 179.528C0.78403 177.082 -0.00231228 174.271 8.53648e-06 171.406V15.5958C-0.00298665 12.7315 0.782262 9.92175 2.26947 7.47535C3.75667 5.02894 5.88827 3.04056 8.43005 1.7287Z" />
</svg>
