<svg viewBox="0 0 65 65" xmlns="http://www.w3.org/2000/svg">
<path d="M32.4801 60.882C24.9984 60.882 17.8231 57.9221 12.5327 52.6534C7.24233 47.3846 4.27022 40.2387 4.27022 32.7876C4.27022 25.3365 7.24233 18.1906 12.5327 12.9218C17.8231 7.65312 24.9984 4.69318 32.4801 4.69318C39.9619 4.69318 47.1372 7.65312 52.4276 12.9218C57.7179 18.1906 60.69 25.3365 60.69 32.7876C60.69 40.2387 57.7179 47.3846 52.4276 52.6534C47.1372 57.9221 39.9619 60.882 32.4801 60.882ZM32.4801 64.8955C41.0307 64.8955 49.231 61.5127 55.2772 55.4913C61.3233 49.4699 64.72 41.3032 64.72 32.7876C64.72 24.2721 61.3233 16.1053 55.2772 10.0839C49.231 4.06248 41.0307 0.679688 32.4801 0.679688C23.9296 0.679688 15.7292 4.06248 9.68308 10.0839C3.63693 16.1053 0.240234 24.2721 0.240234 32.7876C0.240234 41.3032 3.63693 49.4699 9.68308 55.4913C15.7292 61.5127 23.9296 64.8955 32.4801 64.8955Z" />
<path d="M25.5123 20.9678C25.8419 20.7987 26.2119 20.7235 26.5816 20.7505C26.9514 20.7774 27.3065 20.9053 27.6079 21.1203L41.7129 31.154C41.9741 31.3396 42.187 31.5847 42.3339 31.8688C42.4808 32.153 42.5574 32.4679 42.5574 32.7875C42.5574 33.1071 42.4808 33.422 42.3339 33.7062C42.187 33.9903 41.9741 34.2354 41.7129 34.421L27.6079 44.4547C27.3066 44.6695 26.9516 44.7973 26.5821 44.8243C26.2126 44.8512 25.8427 44.7761 25.5132 44.6072C25.1838 44.4384 24.9074 44.1824 24.7146 43.8673C24.5217 43.5522 24.4199 43.1902 24.4202 42.8212V22.7538C24.4198 22.3849 24.5215 22.023 24.7142 21.7079C24.9068 21.3928 25.183 21.1367 25.5123 20.9678Z" />
</svg>
