<svg viewBox="0 0 42 47" fill="black" xmlns="http://www.w3.org/2000/svg">
<path fill-rule="evenodd" clip-rule="evenodd" d="M33.6667 3.48048C31.0119 3.48048 28.8138 5.67981 28.8138 8.44999C28.8138 9.32863 29.035 10.1498 29.4217 10.8617C29.439 10.8871 29.4557 10.9133 29.4716 10.9401C29.4955 10.9803 29.5173 11.0212 29.537 11.0627C30.3966 12.4831 31.9344 13.4195 33.6667 13.4195C36.3215 13.4195 38.5195 11.2202 38.5195 8.44999C38.5195 5.67981 36.3215 3.48048 33.6667 3.48048ZM27.7816 13.6667C29.2098 15.3267 31.3104 16.3805 33.6667 16.3805C38.0075 16.3805 41.4805 12.8043 41.4805 8.44999C41.4805 4.09569 38.0075 0.519501 33.6667 0.519501C29.3259 0.519501 25.8529 4.09569 25.8529 8.44999C25.8529 9.37843 26.0108 10.2715 26.3013 11.1021L14.2184 18.2833C12.7902 16.6233 10.6896 15.5695 8.33334 15.5695C3.99252 15.5695 0.519516 19.1457 0.519516 23.5C0.519516 27.8543 3.99252 31.4305 8.33334 31.4305C10.69 31.4305 12.7909 30.3765 14.2191 28.7161L26.3047 35.8883C26.012 36.7216 25.8529 37.618 25.8529 38.55C25.8529 42.9043 29.3259 46.4805 33.6667 46.4805C38.0075 46.4805 41.4805 42.9043 41.4805 38.55C41.4805 34.1957 38.0075 30.6195 33.6667 30.6195C31.314 30.6195 29.2162 31.67 27.7882 33.3256L15.699 26.1512C15.9894 25.3209 16.1472 24.4281 16.1472 23.5C16.1472 22.5716 15.9893 21.6785 15.6987 20.8479L27.7816 13.6667ZM12.4635 20.8881C12.4831 20.9293 12.5047 20.9699 12.5285 21.0099C12.5443 21.0364 12.5607 21.0623 12.5779 21.0875C12.9649 21.7995 13.1862 22.621 13.1862 23.5C13.1862 24.3787 12.965 25.2 12.5783 25.9118C12.5608 25.9375 12.544 25.9638 12.528 25.9909C12.5043 26.0308 12.4827 26.0714 12.4632 26.1125C11.6036 27.533 10.0657 28.4696 8.33334 28.4696C5.67855 28.4696 3.48049 26.2702 3.48049 23.5C3.48049 20.7299 5.67855 18.5305 8.33334 18.5305C10.0659 18.5305 11.604 19.4673 12.4635 20.8881ZM28.8138 38.55C28.8138 37.7115 29.0152 36.9253 29.3697 36.2366C29.4145 36.1813 29.4558 36.122 29.4932 36.059C29.5374 35.9845 29.5744 35.9076 29.6042 35.8293C30.4753 34.4696 31.9787 33.5805 33.6667 33.5805C36.3215 33.5805 38.5195 35.7798 38.5195 38.55C38.5195 41.3202 36.3215 43.5195 33.6667 43.5195C31.0119 43.5195 28.8138 41.3202 28.8138 38.55Z" />
</svg>
