<svg viewBox="0 0 122 135" xmlns="http://www.w3.org/2000/svg">
<path fill-rule="evenodd" clip-rule="evenodd" d="M101 2C90.5042 2 82 10.4866 82 20.95C82 31.4134 90.5042 39.9 101 39.9C111.496 39.9 120 31.4134 120 20.95C120 10.4866 111.496 2 101 2ZM80 20.95C80 9.37728 89.4044 0 101 0C112.596 0 122 9.37728 122 20.95C122 32.5227 112.596 41.9 101 41.9C89.4044 41.9 80 32.5227 80 20.95Z" />
<path fill-rule="evenodd" clip-rule="evenodd" d="M21 48.55C10.5042 48.55 2 57.0366 2 67.5C2 77.9634 10.5042 86.45 21 86.45C31.4958 86.45 40 77.9634 40 67.5C40 57.0366 31.4958 48.55 21 48.55ZM0 67.5C0 55.9273 9.40438 46.55 21 46.55C32.5956 46.55 42 55.9273 42 67.5C42 79.0727 32.5956 88.45 21 88.45C9.40438 88.45 0 79.0727 0 67.5Z" />
<path fill-rule="evenodd" clip-rule="evenodd" d="M101 95.1C90.5042 95.1 82 103.587 82 114.05C82 124.513 90.5042 133 101 133C111.496 133 120 124.513 120 114.05C120 103.587 111.496 95.1 101 95.1ZM80 114.05C80 102.477 89.4044 93.1 101 93.1C112.596 93.1 122 102.477 122 114.05C122 125.623 112.596 135 101 135C89.4044 135 80 125.623 80 114.05Z" />
<path fill-rule="evenodd" clip-rule="evenodd" d="M37.4022 77.0389C37.6798 76.5614 38.2918 76.3994 38.7693 76.6769L84.3026 103.144C84.7801 103.421 84.9422 104.034 84.6647 104.511C84.3871 104.988 83.775 105.151 83.2976 104.873L37.7642 78.406C37.2868 78.1285 37.1247 77.5164 37.4022 77.0389Z" />
<path fill-rule="evenodd" clip-rule="evenodd" d="M84.5977 30.4884C84.8755 30.9657 84.7138 31.5779 84.2365 31.8557L38.7699 58.3227C38.2926 58.6005 37.6804 58.4389 37.4025 57.9615C37.1247 57.4842 37.2864 56.8721 37.7637 56.5942L83.2303 30.1272C83.7076 29.8494 84.3198 30.0111 84.5977 30.4884Z" />
</svg>
