<svg width="158" height="70" viewBox="0 0 158 70" fill="none" xmlns="http://www.w3.org/2000/svg">
<path d="M5.3088 62.4838L7.9 51.3408L5.3088 39.8318C5.2377 39.4898 4.582 39.2274 3.7999 39.2274C2.9941 39.2274 2.3463 39.4898 2.291 39.8318L0 51.3408L2.2831 62.4758C2.3463 62.8338 2.9941 63.0803 3.792 63.0803C4.582 63.0883 5.2377 62.8417 5.3088 62.4838ZM21.5117 68.6638L23.7 51.4521L21.5117 24.8233C21.4406 24.1552 20.6111 23.6144 19.6236 23.6144C18.6203 23.6144 17.7829 24.1552 17.7434 24.8233L15.8 51.4521L17.7434 68.6638C17.7908 69.3478 18.6203 69.8727 19.6236 69.8727C20.6111 69.8727 21.4406 69.3478 21.5117 68.6638ZM37.6672 68.3854L39.5 51.468L37.6672 16.0186C37.6198 15.1755 36.6481 14.5233 35.4394 14.5233C34.2386 14.5233 33.2669 15.1755 33.2195 16.0186L31.6 51.468L33.2195 68.4013C33.2669 69.2205 34.2386 69.8807 35.4394 69.8807C36.6481 69.8727 37.6198 69.2205 37.6672 68.3854ZM53.799 68.1388L55.3 51.468L53.799 15.7562C53.7595 14.7779 52.6456 13.9984 51.271 13.9984C49.8806 13.9984 48.7746 14.7779 48.7351 15.7562L47.4 51.468L48.743 68.1388C48.7746 69.1171 49.8885 69.8966 51.271 69.8966C52.6456 69.8886 53.7595 69.133 53.799 68.1388ZM69.915 67.9161L71.1 51.4839L69.915 10.5306C69.8834 9.4012 68.6194 8.50244 67.0868 8.50244C65.5542 8.50244 64.2902 9.41711 64.2665 10.5386L63.2 51.468L64.2665 67.9161C64.2902 69.0376 65.5542 69.9523 67.0868 69.9523C68.6194 69.9523 69.8834 69.0535 69.915 67.9161ZM81.1883 69.9682L137.634 70C148.883 70 158 61.1158 158 50.1636C158 39.2114 148.883 30.3431 137.634 30.3431C134.845 30.3431 132.191 30.8999 129.765 31.8782C128.146 14.0143 112.757 0 93.9863 0C89.5422 0.00832773 85.1345 0.808058 80.9671 2.36223C79.4187 2.9508 79.0158 3.53937 79 4.70856V67.6219C79.0185 68.2141 79.251 68.7792 79.6539 69.2112C80.0568 69.6432 80.6024 69.9123 81.1883 69.9682Z" fill="#1A2534"/>
</svg>
